<?xml version="1.0" encoding="UTF-8"?>
<!DOCTYPE svg PUBLIC "-//W3C//DTD SVG 1.1//EN" "http://www.w3.org/Graphics/SVG/1.1/DTD/svg11.dtd">
<svg version="1.1" xmlns="http://www.w3.org/2000/svg" xmlns:xlink="http://www.w3.org/1999/xlink" x="0px" y="0px" width="400" height="300" viewBox="0, 0, 400, 300">
  <g id="Background">
    <rect x="0" y="0" width="400" height="300" fill="#FFFFFF"/>
  </g>
  <g id="Layer 1">
    <g>
      <path d="M55.227,235.038 L344.035,235.038 C346.797,235.038 349.035,237.276 349.035,240.038 L349.035,259.506 C349.035,262.268 346.797,264.506 344.035,264.506 L55.227,264.506 C52.465,264.506 50.227,262.268 50.227,259.506 L50.227,240.038 C50.227,237.276 52.465,235.038 55.227,235.038 z" fill="#F9963B"/>
      <path d="M55.227,235.038 L344.035,235.038 C346.797,235.038 349.035,237.276 349.035,240.038 L349.035,259.506 C349.035,262.268 346.797,264.506 344.035,264.506 L55.227,264.506 C52.465,264.506 50.227,262.268 50.227,259.506 L50.227,240.038 C50.227,237.276 52.465,235.038 55.227,235.038 z" fill-opacity="0" stroke="#000000" stroke-width="1"/>
    </g>
    <g>
      <path d="M55.227,196.322 L344.035,196.322 C346.797,196.322 349.035,198.56 349.035,201.322 L349.035,220.79 C349.035,223.552 346.797,225.79 344.035,225.79 L55.227,225.79 C52.465,225.79 50.227,223.552 50.227,220.79 L50.227,201.322 C50.227,198.56 52.465,196.322 55.227,196.322 z" fill="#8063A4"/>
      <path d="M55.227,196.322 L344.035,196.322 C346.797,196.322 349.035,198.56 349.035,201.322 L349.035,220.79 C349.035,223.552 346.797,225.79 344.035,225.79 L55.227,225.79 C52.465,225.79 50.227,223.552 50.227,220.79 L50.227,201.322 C50.227,198.56 52.465,196.322 55.227,196.322 z" fill-opacity="0" stroke="#000000" stroke-width="1"/>
    </g>
    <path d="M65.227,25.954 L341.368,25.954 C349.653,25.954 356.368,32.904 356.368,41.477 L356.368,108.624 C356.368,117.197 349.653,124.147 341.368,124.147 L65.227,124.147 C56.942,124.147 50.227,117.197 50.227,108.624 L50.227,41.477 C50.227,32.904 56.942,25.954 65.227,25.954 z" fill-opacity="0" stroke="#000000" stroke-width="1"/>
    <path d="M25.862,158.151 L372.702,158.173" fill-opacity="0" stroke="#30B5FF" stroke-width="2" stroke-dasharray="6,4" stroke-linecap="round" stroke-linejoin="round"/>
    <g>
      <path d="M70.856,34.844 L141.628,34.844 C146.986,34.844 151.33,41.407 151.33,49.503 L151.33,63.236 C151.33,71.333 146.986,77.896 141.628,77.896 L70.856,77.896 C65.498,77.896 61.154,71.333 61.154,63.236 L61.154,49.503 C61.154,41.407 65.498,34.844 70.856,34.844 z" fill="#4D7FC0"/>
      <path d="M70.856,34.844 L141.628,34.844 C146.986,34.844 151.33,41.407 151.33,49.503 L151.33,63.236 C151.33,71.333 146.986,77.896 141.628,77.896 L70.856,77.896 C65.498,77.896 61.154,71.333 61.154,63.236 L61.154,49.503 C61.154,41.407 65.498,34.844 70.856,34.844 z" fill-opacity="0" stroke="#000000" stroke-width="1"/>
    </g>
    <g>
      <path d="M168.242,34.844 L239.014,34.844 C244.373,34.844 248.717,41.407 248.717,49.503 L248.717,63.236 C248.717,71.333 244.373,77.896 239.014,77.896 L168.242,77.896 C162.884,77.896 158.54,71.333 158.54,63.236 L158.54,49.503 C158.54,41.407 162.884,34.844 168.242,34.844 z" fill="#C24F4A"/>
      <path d="M168.242,34.844 L239.014,34.844 C244.373,34.844 248.717,41.407 248.717,49.503 L248.717,63.236 C248.717,71.333 244.373,77.896 239.014,77.896 L168.242,77.896 C162.884,77.896 158.54,71.333 158.54,63.236 L158.54,49.503 C158.54,41.407 162.884,34.844 168.242,34.844 z" fill-opacity="0" stroke="#000000" stroke-width="1"/>
    </g>
    <g>
      <path d="M264.967,34.844 L335.739,34.844 C341.097,34.844 345.441,41.407 345.441,49.503 L345.441,63.236 C345.441,71.333 341.097,77.896 335.739,77.896 L264.967,77.896 C259.609,77.896 255.265,71.333 255.265,63.236 L255.265,49.503 C255.265,41.407 259.609,34.844 264.967,34.844 z" fill="#9BBC52"/>
      <path d="M264.967,34.844 L335.739,34.844 C341.097,34.844 345.441,41.407 345.441,49.503 L345.441,63.236 C345.441,71.333 341.097,77.896 335.739,77.896 L264.967,77.896 C259.609,77.896 255.265,71.333 255.265,63.236 L255.265,49.503 C255.265,41.407 259.609,34.844 264.967,34.844 z" fill-opacity="0" stroke="#000000" stroke-width="1"/>
    </g>
    <g>
      <path d="M70.856,85.297 L141.628,85.297 C146.986,85.297 151.33,89.998 151.33,95.797 L151.33,105.635 C151.33,111.434 146.986,116.135 141.628,116.135 L70.856,116.135 C65.498,116.135 61.154,111.434 61.154,105.635 L61.154,95.797 C61.154,89.998 65.498,85.297 70.856,85.297 z" fill="#4D7FC0"/>
      <path d="M70.856,85.297 L141.628,85.297 C146.986,85.297 151.33,89.998 151.33,95.797 L151.33,105.635 C151.33,111.434 146.986,116.135 141.628,116.135 L70.856,116.135 C65.498,116.135 61.154,111.434 61.154,105.635 L61.154,95.797 C61.154,89.998 65.498,85.297 70.856,85.297 z" fill-opacity="0" stroke="#000000" stroke-width="1"/>
    </g>
    <g>
      <path d="M168.242,85.297 L239.014,85.297 C244.373,85.297 248.717,89.998 248.717,95.797 L248.717,105.635 C248.717,111.434 244.373,116.135 239.014,116.135 L168.242,116.135 C162.884,116.135 158.54,111.434 158.54,105.635 L158.54,95.797 C158.54,89.998 162.884,85.297 168.242,85.297 z" fill="#C24F4A"/>
      <path d="M168.242,85.297 L239.014,85.297 C244.373,85.297 248.717,89.998 248.717,95.797 L248.717,105.635 C248.717,111.434 244.373,116.135 239.014,116.135 L168.242,116.135 C162.884,116.135 158.54,111.434 158.54,105.635 L158.54,95.797 C158.54,89.998 162.884,85.297 168.242,85.297 z" fill-opacity="0" stroke="#000000" stroke-width="1"/>
    </g>
    <g>
      <path d="M264.967,85.297 L335.739,85.297 C341.097,85.297 345.441,89.998 345.441,95.797 L345.441,105.635 C345.441,111.434 341.097,116.135 335.739,116.135 L264.967,116.135 C259.609,116.135 255.265,111.434 255.265,105.635 L255.265,95.797 C255.265,89.998 259.609,85.297 264.967,85.297 z" fill="#9BBC52"/>
      <path d="M264.967,85.297 L335.739,85.297 C341.097,85.297 345.441,89.998 345.441,95.797 L345.441,105.635 C345.441,111.434 341.097,116.135 335.739,116.135 L264.967,116.135 C259.609,116.135 255.265,111.434 255.265,105.635 L255.265,95.797 C255.265,89.998 259.609,85.297 264.967,85.297 z" fill-opacity="0" stroke="#000000" stroke-width="1"/>
    </g>
    <g>
      <text transform="matrix(1, 0, 0, 1, 106.242, 55.87)">
        <tspan x="-21.885" y="3.5" font-family="HelveticaNeue-Bold" font-size="10" fill="#FFFFFF">CLIENTE</tspan>
      </text>
      <path d="M89.807,54.63 L91.327,54.63 Q91.257,54.01 90.987,53.53 Q90.717,53.05 90.302,52.725 Q89.887,52.4 89.362,52.23 Q88.837,52.06 88.247,52.06 Q87.427,52.06 86.772,52.35 Q86.117,52.64 85.667,53.15 Q85.217,53.66 84.977,54.345 Q84.737,55.03 84.737,55.83 Q84.737,56.61 84.977,57.285 Q85.217,57.96 85.667,58.46 Q86.117,58.96 86.772,59.245 Q87.427,59.53 88.247,59.53 Q88.907,59.53 89.457,59.33 Q90.007,59.13 90.417,58.75 Q90.827,58.37 91.077,57.83 Q91.327,57.29 91.387,56.62 L89.867,56.62 Q89.777,57.34 89.372,57.78 Q88.967,58.22 88.247,58.22 Q87.717,58.22 87.347,58.015 Q86.977,57.81 86.747,57.47 Q86.517,57.13 86.412,56.705 Q86.307,56.28 86.307,55.83 Q86.307,55.36 86.412,54.92 Q86.517,54.48 86.747,54.135 Q86.977,53.79 87.347,53.585 Q87.717,53.38 88.247,53.38 Q88.537,53.38 88.802,53.475 Q89.067,53.57 89.277,53.74 Q89.487,53.91 89.627,54.135 Q89.767,54.36 89.807,54.63 z M92.457,52.23 L92.457,59.37 L97.507,59.37 L97.507,58.05 L94.027,58.05 L94.027,52.23 z M98.387,52.23 L98.387,59.37 L99.957,59.37 L99.957,52.23 z M101.337,52.23 L101.337,59.37 L106.757,59.37 L106.757,58.05 L102.907,58.05 L102.907,56.3 L106.367,56.3 L106.367,55.08 L102.907,55.08 L102.907,53.55 L106.677,53.55 L106.677,52.23 z M107.817,52.23 L107.817,59.37 L109.287,59.37 L109.287,54.59 L109.307,54.59 L112.277,59.37 L113.847,59.37 L113.847,52.23 L112.377,52.23 L112.377,57.02 L112.357,57.02 L109.377,52.23 z M116.807,53.55 L116.807,59.37 L118.377,59.37 L118.377,53.55 L120.517,53.55 L120.517,52.23 L114.667,52.23 L114.667,53.55 z M121.337,52.23 L121.337,59.37 L126.757,59.37 L126.757,58.05 L122.907,58.05 L122.907,56.3 L126.367,56.3 L126.367,55.08 L122.907,55.08 L122.907,53.55 L126.677,53.55 L126.677,52.23 z" fill="#FFFFFF"/>
    </g>
    <g>
      <text transform="matrix(1, 0, 0, 1, 203.628, 55.87)">
        <tspan x="-21.885" y="3.5" font-family="HelveticaNeue-Bold" font-size="10" fill="#FFFFFF">CLIENTE</tspan>
      </text>
      <path d="M187.193,54.63 L188.713,54.63 Q188.643,54.01 188.373,53.53 Q188.103,53.05 187.688,52.725 Q187.273,52.4 186.748,52.23 Q186.223,52.06 185.633,52.06 Q184.813,52.06 184.158,52.35 Q183.503,52.64 183.053,53.15 Q182.603,53.66 182.363,54.345 Q182.123,55.03 182.123,55.83 Q182.123,56.61 182.363,57.285 Q182.603,57.96 183.053,58.46 Q183.503,58.96 184.158,59.245 Q184.813,59.53 185.633,59.53 Q186.293,59.53 186.843,59.33 Q187.393,59.13 187.803,58.75 Q188.213,58.37 188.463,57.83 Q188.713,57.29 188.773,56.62 L187.253,56.62 Q187.163,57.34 186.758,57.78 Q186.353,58.22 185.633,58.22 Q185.103,58.22 184.733,58.015 Q184.363,57.81 184.133,57.47 Q183.903,57.13 183.798,56.705 Q183.693,56.28 183.693,55.83 Q183.693,55.36 183.798,54.92 Q183.903,54.48 184.133,54.135 Q184.363,53.79 184.733,53.585 Q185.103,53.38 185.633,53.38 Q185.923,53.38 186.188,53.475 Q186.453,53.57 186.663,53.74 Q186.873,53.91 187.013,54.135 Q187.153,54.36 187.193,54.63 z M189.843,52.23 L189.843,59.37 L194.893,59.37 L194.893,58.05 L191.413,58.05 L191.413,52.23 z M195.773,52.23 L195.773,59.37 L197.343,59.37 L197.343,52.23 z M198.723,52.23 L198.723,59.37 L204.143,59.37 L204.143,58.05 L200.293,58.05 L200.293,56.3 L203.753,56.3 L203.753,55.08 L200.293,55.08 L200.293,53.55 L204.063,53.55 L204.063,52.23 z M205.203,52.23 L205.203,59.37 L206.673,59.37 L206.673,54.59 L206.693,54.59 L209.663,59.37 L211.233,59.37 L211.233,52.23 L209.763,52.23 L209.763,57.02 L209.743,57.02 L206.763,52.23 z M214.193,53.55 L214.193,59.37 L215.763,59.37 L215.763,53.55 L217.903,53.55 L217.903,52.23 L212.053,52.23 L212.053,53.55 z M218.723,52.23 L218.723,59.37 L224.143,59.37 L224.143,58.05 L220.293,58.05 L220.293,56.3 L223.753,56.3 L223.753,55.08 L220.293,55.08 L220.293,53.55 L224.063,53.55 L224.063,52.23 z" fill="#FFFFFF"/>
    </g>
    <g>
      <text transform="matrix(1, 0, 0, 1, 300.353, 55.87)">
        <tspan x="-21.885" y="3.5" font-family="HelveticaNeue-Bold" font-size="10" fill="#FFFFFF">CLIENTE</tspan>
      </text>
      <path d="M283.918,54.63 L285.438,54.63 Q285.368,54.01 285.098,53.53 Q284.828,53.05 284.413,52.725 Q283.998,52.4 283.473,52.23 Q282.948,52.06 282.358,52.06 Q281.538,52.06 280.883,52.35 Q280.228,52.64 279.778,53.15 Q279.328,53.66 279.088,54.345 Q278.848,55.03 278.848,55.83 Q278.848,56.61 279.088,57.285 Q279.328,57.96 279.778,58.46 Q280.228,58.96 280.883,59.245 Q281.538,59.53 282.358,59.53 Q283.018,59.53 283.568,59.33 Q284.118,59.13 284.528,58.75 Q284.938,58.37 285.188,57.83 Q285.438,57.29 285.498,56.62 L283.978,56.62 Q283.888,57.34 283.483,57.78 Q283.078,58.22 282.358,58.22 Q281.828,58.22 281.458,58.015 Q281.088,57.81 280.858,57.47 Q280.628,57.13 280.523,56.705 Q280.418,56.28 280.418,55.83 Q280.418,55.36 280.523,54.92 Q280.628,54.48 280.858,54.135 Q281.088,53.79 281.458,53.585 Q281.828,53.38 282.358,53.38 Q282.648,53.38 282.913,53.475 Q283.178,53.57 283.388,53.74 Q283.598,53.91 283.738,54.135 Q283.878,54.36 283.918,54.63 z M286.568,52.23 L286.568,59.37 L291.618,59.37 L291.618,58.05 L288.138,58.05 L288.138,52.23 z M292.498,52.23 L292.498,59.37 L294.068,59.37 L294.068,52.23 z M295.448,52.23 L295.448,59.37 L300.868,59.37 L300.868,58.05 L297.018,58.05 L297.018,56.3 L300.478,56.3 L300.478,55.08 L297.018,55.08 L297.018,53.55 L300.788,53.55 L300.788,52.23 z M301.928,52.23 L301.928,59.37 L303.398,59.37 L303.398,54.59 L303.418,54.59 L306.388,59.37 L307.958,59.37 L307.958,52.23 L306.488,52.23 L306.488,57.02 L306.468,57.02 L303.488,52.23 z M310.918,53.55 L310.918,59.37 L312.488,59.37 L312.488,53.55 L314.628,53.55 L314.628,52.23 L308.778,52.23 L308.778,53.55 z M315.448,52.23 L315.448,59.37 L320.868,59.37 L320.868,58.05 L317.018,58.05 L317.018,56.3 L320.478,56.3 L320.478,55.08 L317.018,55.08 L317.018,53.55 L320.788,53.55 L320.788,52.23 z" fill="#FFFFFF"/>
    </g>
    <g>
      <text transform="matrix(1, 0, 0, 1, 106.242, 100.758)">
        <tspan x="-39.67" y="3.5" font-family="HelveticaNeue-Bold" font-size="10" fill="#FFFFFF">PRESENTACIÓN</tspan>
      </text>
      <path d="M68.832,100.478 L68.832,98.338 L70.052,98.338 Q70.322,98.338 70.572,98.378 Q70.822,98.418 71.012,98.533 Q71.202,98.648 71.317,98.858 Q71.432,99.068 71.432,99.408 Q71.432,99.748 71.317,99.958 Q71.202,100.168 71.012,100.283 Q70.822,100.398 70.572,100.438 Q70.322,100.478 70.052,100.478 z M67.262,97.118 L67.262,104.258 L68.832,104.258 L68.832,101.698 L70.482,101.698 Q71.152,101.698 71.622,101.503 Q72.092,101.308 72.387,100.988 Q72.682,100.668 72.817,100.253 Q72.952,99.838 72.952,99.408 Q72.952,98.968 72.817,98.558 Q72.682,98.148 72.387,97.828 Q72.092,97.508 71.622,97.313 Q71.152,97.118 70.482,97.118 z M75.502,100.348 L75.502,98.338 L77.222,98.338 Q77.762,98.338 78.032,98.573 Q78.302,98.808 78.302,99.328 Q78.302,99.868 78.032,100.108 Q77.762,100.348 77.222,100.348 z M73.932,97.118 L73.932,104.258 L75.502,104.258 L75.502,101.468 L77.072,101.468 Q77.662,101.468 77.922,101.728 Q78.182,101.988 78.262,102.548 Q78.322,102.978 78.352,103.448 Q78.382,103.918 78.512,104.258 L80.082,104.258 Q79.972,104.108 79.917,103.893 Q79.862,103.678 79.837,103.438 Q79.812,103.198 79.802,102.968 Q79.792,102.738 79.782,102.568 Q79.762,102.298 79.707,102.028 Q79.652,101.758 79.532,101.533 Q79.412,101.308 79.222,101.143 Q79.032,100.978 78.742,100.898 L78.742,100.878 Q79.342,100.638 79.607,100.178 Q79.872,99.718 79.872,99.088 Q79.872,98.678 79.727,98.323 Q79.582,97.968 79.307,97.698 Q79.032,97.428 78.647,97.273 Q78.262,97.118 77.782,97.118 z M81.152,97.118 L81.152,104.258 L86.572,104.258 L86.572,102.938 L82.722,102.938 L82.722,101.188 L86.182,101.188 L86.182,99.968 L82.722,99.968 L82.722,98.438 L86.492,98.438 L86.492,97.118 z M88.702,101.888 L87.182,101.888 Q87.172,102.548 87.422,103.028 Q87.672,103.508 88.097,103.818 Q88.522,104.128 89.077,104.273 Q89.632,104.418 90.222,104.418 Q90.952,104.418 91.507,104.248 Q92.062,104.078 92.437,103.773 Q92.812,103.468 93.002,103.048 Q93.192,102.628 93.192,102.138 Q93.192,101.538 92.937,101.153 Q92.682,100.768 92.332,100.538 Q91.982,100.308 91.627,100.203 Q91.272,100.098 91.072,100.058 Q90.402,99.888 89.987,99.778 Q89.572,99.668 89.337,99.558 Q89.102,99.448 89.022,99.318 Q88.942,99.188 88.942,98.978 Q88.942,98.748 89.042,98.598 Q89.142,98.448 89.297,98.348 Q89.452,98.248 89.642,98.208 Q89.832,98.168 90.022,98.168 Q90.312,98.168 90.557,98.218 Q90.802,98.268 90.992,98.388 Q91.182,98.508 91.297,98.718 Q91.412,98.928 91.432,99.248 L92.952,99.248 Q92.952,98.628 92.717,98.193 Q92.482,97.758 92.082,97.478 Q91.682,97.198 91.167,97.073 Q90.652,96.948 90.092,96.948 Q89.612,96.948 89.132,97.078 Q88.652,97.208 88.272,97.478 Q87.892,97.748 87.657,98.153 Q87.422,98.558 87.422,99.108 Q87.422,99.598 87.607,99.943 Q87.792,100.288 88.092,100.518 Q88.392,100.748 88.772,100.893 Q89.152,101.038 89.552,101.138 Q89.942,101.248 90.322,101.338 Q90.702,101.428 91.002,101.548 Q91.302,101.668 91.487,101.848 Q91.672,102.028 91.672,102.318 Q91.672,102.588 91.532,102.763 Q91.392,102.938 91.182,103.038 Q90.972,103.138 90.732,103.173 Q90.492,103.208 90.282,103.208 Q89.972,103.208 89.682,103.133 Q89.392,103.058 89.177,102.903 Q88.962,102.748 88.832,102.498 Q88.702,102.248 88.702,101.888 z M94.122,97.118 L94.122,104.258 L99.542,104.258 L99.542,102.938 L95.692,102.938 L95.692,101.188 L99.152,101.188 L99.152,99.968 L95.692,99.968 L95.692,98.438 L99.462,98.438 L99.462,97.118 z M100.602,97.118 L100.602,104.258 L102.072,104.258 L102.072,99.478 L102.092,99.478 L105.062,104.258 L106.632,104.258 L106.632,97.118 L105.162,97.118 L105.162,101.908 L105.142,101.908 L102.162,97.118 z M109.592,98.438 L109.592,104.258 L111.162,104.258 L111.162,98.438 L113.302,98.438 L113.302,97.118 L107.452,97.118 L107.452,98.438 z M115.002,101.498 L115.932,98.878 L115.952,98.878 L116.852,101.498 z M115.152,97.118 L112.452,104.258 L114.032,104.258 L114.592,102.668 L117.262,102.668 L117.802,104.258 L119.432,104.258 L116.762,97.118 z M124.812,99.518 L126.332,99.518 Q126.262,98.898 125.992,98.418 Q125.722,97.938 125.307,97.613 Q124.892,97.288 124.367,97.118 Q123.842,96.948 123.252,96.948 Q122.432,96.948 121.777,97.238 Q121.122,97.528 120.672,98.038 Q120.222,98.548 119.982,99.233 Q119.742,99.918 119.742,100.718 Q119.742,101.498 119.982,102.173 Q120.222,102.848 120.672,103.348 Q121.122,103.848 121.777,104.133 Q122.432,104.418 123.252,104.418 Q123.912,104.418 124.462,104.218 Q125.012,104.018 125.422,103.638 Q125.832,103.258 126.082,102.718 Q126.332,102.178 126.392,101.508 L124.872,101.508 Q124.782,102.228 124.377,102.668 Q123.972,103.108 123.252,103.108 Q122.722,103.108 122.352,102.903 Q121.982,102.698 121.752,102.358 Q121.522,102.018 121.417,101.593 Q121.312,101.168 121.312,100.718 Q121.312,100.248 121.417,99.808 Q121.522,99.368 121.752,99.023 Q121.982,98.678 122.352,98.473 Q122.722,98.268 123.252,98.268 Q123.542,98.268 123.807,98.363 Q124.072,98.458 124.282,98.628 Q124.492,98.798 124.632,99.023 Q124.772,99.248 124.812,99.518 z M127.462,97.118 L127.462,104.258 L129.032,104.258 L129.032,97.118 z M133.852,96.478 L135.392,95.058 L133.822,95.058 L132.862,96.478 z M131.672,100.718 Q131.672,100.248 131.777,99.808 Q131.882,99.368 132.112,99.023 Q132.342,98.678 132.712,98.473 Q133.082,98.268 133.612,98.268 Q134.142,98.268 134.512,98.473 Q134.882,98.678 135.112,99.023 Q135.342,99.368 135.447,99.808 Q135.552,100.248 135.552,100.718 Q135.552,101.168 135.447,101.593 Q135.342,102.018 135.112,102.358 Q134.882,102.698 134.512,102.903 Q134.142,103.108 133.612,103.108 Q133.082,103.108 132.712,102.903 Q132.342,102.698 132.112,102.358 Q131.882,102.018 131.777,101.593 Q131.672,101.168 131.672,100.718 z M130.102,100.718 Q130.102,101.498 130.342,102.173 Q130.582,102.848 131.032,103.348 Q131.482,103.848 132.137,104.133 Q132.792,104.418 133.612,104.418 Q134.442,104.418 135.092,104.133 Q135.742,103.848 136.192,103.348 Q136.642,102.848 136.882,102.173 Q137.122,101.498 137.122,100.718 Q137.122,99.918 136.882,99.233 Q136.642,98.548 136.192,98.038 Q135.742,97.528 135.092,97.238 Q134.442,96.948 133.612,96.948 Q132.792,96.948 132.137,97.238 Q131.482,97.528 131.032,98.038 Q130.582,98.548 130.342,99.233 Q130.102,99.918 130.102,100.718 z M138.192,97.118 L138.192,104.258 L139.662,104.258 L139.662,99.478 L139.682,99.478 L142.652,104.258 L144.222,104.258 L144.222,97.118 L142.752,97.118 L142.752,101.908 L142.732,101.908 L139.752,97.118 z" fill="#FFFFFF"/>
    </g>
    <g>
      <text transform="matrix(1, 0, 0, 1, 203.628, 100.758)">
        <tspan x="-39.67" y="3.5" font-family="HelveticaNeue-Bold" font-size="10" fill="#FFFFFF">PRESENTACIÓN</tspan>
      </text>
      <path d="M166.218,100.478 L166.218,98.338 L167.438,98.338 Q167.708,98.338 167.958,98.378 Q168.208,98.418 168.398,98.533 Q168.588,98.648 168.703,98.858 Q168.818,99.068 168.818,99.408 Q168.818,99.748 168.703,99.958 Q168.588,100.168 168.398,100.283 Q168.208,100.398 167.958,100.438 Q167.708,100.478 167.438,100.478 z M164.648,97.118 L164.648,104.258 L166.218,104.258 L166.218,101.698 L167.868,101.698 Q168.538,101.698 169.008,101.503 Q169.478,101.308 169.773,100.988 Q170.068,100.668 170.203,100.253 Q170.338,99.838 170.338,99.408 Q170.338,98.968 170.203,98.558 Q170.068,98.148 169.773,97.828 Q169.478,97.508 169.008,97.313 Q168.538,97.118 167.868,97.118 z M172.888,100.348 L172.888,98.338 L174.608,98.338 Q175.148,98.338 175.418,98.573 Q175.688,98.808 175.688,99.328 Q175.688,99.868 175.418,100.108 Q175.148,100.348 174.608,100.348 z M171.318,97.118 L171.318,104.258 L172.888,104.258 L172.888,101.468 L174.458,101.468 Q175.048,101.468 175.308,101.728 Q175.568,101.988 175.648,102.548 Q175.708,102.978 175.738,103.448 Q175.768,103.918 175.898,104.258 L177.468,104.258 Q177.358,104.108 177.303,103.893 Q177.248,103.678 177.223,103.438 Q177.198,103.198 177.188,102.968 Q177.178,102.738 177.168,102.568 Q177.148,102.298 177.093,102.028 Q177.038,101.758 176.918,101.533 Q176.798,101.308 176.608,101.143 Q176.418,100.978 176.128,100.898 L176.128,100.878 Q176.728,100.638 176.993,100.178 Q177.258,99.718 177.258,99.088 Q177.258,98.678 177.113,98.323 Q176.968,97.968 176.693,97.698 Q176.418,97.428 176.033,97.273 Q175.648,97.118 175.168,97.118 z M178.538,97.118 L178.538,104.258 L183.958,104.258 L183.958,102.938 L180.108,102.938 L180.108,101.188 L183.568,101.188 L183.568,99.968 L180.108,99.968 L180.108,98.438 L183.878,98.438 L183.878,97.118 z M186.088,101.888 L184.568,101.888 Q184.558,102.548 184.808,103.028 Q185.058,103.508 185.483,103.818 Q185.908,104.128 186.463,104.273 Q187.018,104.418 187.608,104.418 Q188.338,104.418 188.893,104.248 Q189.448,104.078 189.823,103.773 Q190.198,103.468 190.388,103.048 Q190.578,102.628 190.578,102.138 Q190.578,101.538 190.323,101.153 Q190.068,100.768 189.718,100.538 Q189.368,100.308 189.013,100.203 Q188.658,100.098 188.458,100.058 Q187.788,99.888 187.373,99.778 Q186.958,99.668 186.723,99.558 Q186.488,99.448 186.408,99.318 Q186.328,99.188 186.328,98.978 Q186.328,98.748 186.428,98.598 Q186.528,98.448 186.683,98.348 Q186.838,98.248 187.028,98.208 Q187.218,98.168 187.408,98.168 Q187.698,98.168 187.943,98.218 Q188.188,98.268 188.378,98.388 Q188.568,98.508 188.683,98.718 Q188.798,98.928 188.818,99.248 L190.338,99.248 Q190.338,98.628 190.103,98.193 Q189.868,97.758 189.468,97.478 Q189.068,97.198 188.553,97.073 Q188.038,96.948 187.478,96.948 Q186.998,96.948 186.518,97.078 Q186.038,97.208 185.658,97.478 Q185.278,97.748 185.043,98.153 Q184.808,98.558 184.808,99.108 Q184.808,99.598 184.993,99.943 Q185.178,100.288 185.478,100.518 Q185.778,100.748 186.158,100.893 Q186.538,101.038 186.938,101.138 Q187.328,101.248 187.708,101.338 Q188.088,101.428 188.388,101.548 Q188.688,101.668 188.873,101.848 Q189.058,102.028 189.058,102.318 Q189.058,102.588 188.918,102.763 Q188.778,102.938 188.568,103.038 Q188.358,103.138 188.118,103.173 Q187.878,103.208 187.668,103.208 Q187.358,103.208 187.068,103.133 Q186.778,103.058 186.563,102.903 Q186.348,102.748 186.218,102.498 Q186.088,102.248 186.088,101.888 z M191.508,97.118 L191.508,104.258 L196.928,104.258 L196.928,102.938 L193.078,102.938 L193.078,101.188 L196.538,101.188 L196.538,99.968 L193.078,99.968 L193.078,98.438 L196.848,98.438 L196.848,97.118 z M197.988,97.118 L197.988,104.258 L199.458,104.258 L199.458,99.478 L199.478,99.478 L202.448,104.258 L204.018,104.258 L204.018,97.118 L202.548,97.118 L202.548,101.908 L202.528,101.908 L199.548,97.118 z M206.978,98.438 L206.978,104.258 L208.548,104.258 L208.548,98.438 L210.688,98.438 L210.688,97.118 L204.838,97.118 L204.838,98.438 z M212.388,101.498 L213.318,98.878 L213.338,98.878 L214.238,101.498 z M212.538,97.118 L209.838,104.258 L211.418,104.258 L211.978,102.668 L214.648,102.668 L215.188,104.258 L216.818,104.258 L214.148,97.118 z M222.198,99.518 L223.718,99.518 Q223.648,98.898 223.378,98.418 Q223.108,97.938 222.693,97.613 Q222.278,97.288 221.753,97.118 Q221.228,96.948 220.638,96.948 Q219.818,96.948 219.163,97.238 Q218.508,97.528 218.058,98.038 Q217.608,98.548 217.368,99.233 Q217.128,99.918 217.128,100.718 Q217.128,101.498 217.368,102.173 Q217.608,102.848 218.058,103.348 Q218.508,103.848 219.163,104.133 Q219.818,104.418 220.638,104.418 Q221.298,104.418 221.848,104.218 Q222.398,104.018 222.808,103.638 Q223.218,103.258 223.468,102.718 Q223.718,102.178 223.778,101.508 L222.258,101.508 Q222.168,102.228 221.763,102.668 Q221.358,103.108 220.638,103.108 Q220.108,103.108 219.738,102.903 Q219.368,102.698 219.138,102.358 Q218.908,102.018 218.803,101.593 Q218.698,101.168 218.698,100.718 Q218.698,100.248 218.803,99.808 Q218.908,99.368 219.138,99.023 Q219.368,98.678 219.738,98.473 Q220.108,98.268 220.638,98.268 Q220.928,98.268 221.193,98.363 Q221.458,98.458 221.668,98.628 Q221.878,98.798 222.018,99.023 Q222.158,99.248 222.198,99.518 z M224.848,97.118 L224.848,104.258 L226.418,104.258 L226.418,97.118 z M231.238,96.478 L232.778,95.058 L231.208,95.058 L230.248,96.478 z M229.058,100.718 Q229.058,100.248 229.163,99.808 Q229.268,99.368 229.498,99.023 Q229.728,98.678 230.098,98.473 Q230.468,98.268 230.998,98.268 Q231.528,98.268 231.898,98.473 Q232.268,98.678 232.498,99.023 Q232.728,99.368 232.833,99.808 Q232.938,100.248 232.938,100.718 Q232.938,101.168 232.833,101.593 Q232.728,102.018 232.498,102.358 Q232.268,102.698 231.898,102.903 Q231.528,103.108 230.998,103.108 Q230.468,103.108 230.098,102.903 Q229.728,102.698 229.498,102.358 Q229.268,102.018 229.163,101.593 Q229.058,101.168 229.058,100.718 z M227.488,100.718 Q227.488,101.498 227.728,102.173 Q227.968,102.848 228.418,103.348 Q228.868,103.848 229.523,104.133 Q230.178,104.418 230.998,104.418 Q231.828,104.418 232.478,104.133 Q233.128,103.848 233.578,103.348 Q234.028,102.848 234.268,102.173 Q234.508,101.498 234.508,100.718 Q234.508,99.918 234.268,99.233 Q234.028,98.548 233.578,98.038 Q233.128,97.528 232.478,97.238 Q231.828,96.948 230.998,96.948 Q230.178,96.948 229.523,97.238 Q228.868,97.528 228.418,98.038 Q227.968,98.548 227.728,99.233 Q227.488,99.918 227.488,100.718 z M235.578,97.118 L235.578,104.258 L237.048,104.258 L237.048,99.478 L237.068,99.478 L240.038,104.258 L241.608,104.258 L241.608,97.118 L240.138,97.118 L240.138,101.908 L240.118,101.908 L237.138,97.118 z" fill="#FFFFFF"/>
    </g>
    <g>
      <text transform="matrix(1, 0, 0, 1, 300.353, 100.758)">
        <tspan x="-39.67" y="3.5" font-family="HelveticaNeue-Bold" font-size="10" fill="#FFFFFF">PRESENTACIÓN</tspan>
      </text>
      <path d="M262.943,100.478 L262.943,98.338 L264.163,98.338 Q264.433,98.338 264.683,98.378 Q264.933,98.418 265.123,98.533 Q265.313,98.648 265.428,98.858 Q265.543,99.068 265.543,99.408 Q265.543,99.748 265.428,99.958 Q265.313,100.168 265.123,100.283 Q264.933,100.398 264.683,100.438 Q264.433,100.478 264.163,100.478 z M261.373,97.118 L261.373,104.258 L262.943,104.258 L262.943,101.698 L264.593,101.698 Q265.263,101.698 265.733,101.503 Q266.203,101.308 266.498,100.988 Q266.793,100.668 266.928,100.253 Q267.063,99.838 267.063,99.408 Q267.063,98.968 266.928,98.558 Q266.793,98.148 266.498,97.828 Q266.203,97.508 265.733,97.313 Q265.263,97.118 264.593,97.118 z M269.613,100.348 L269.613,98.338 L271.333,98.338 Q271.873,98.338 272.143,98.573 Q272.413,98.808 272.413,99.328 Q272.413,99.868 272.143,100.108 Q271.873,100.348 271.333,100.348 z M268.043,97.118 L268.043,104.258 L269.613,104.258 L269.613,101.468 L271.183,101.468 Q271.773,101.468 272.033,101.728 Q272.293,101.988 272.373,102.548 Q272.433,102.978 272.463,103.448 Q272.493,103.918 272.623,104.258 L274.193,104.258 Q274.083,104.108 274.028,103.893 Q273.973,103.678 273.948,103.438 Q273.923,103.198 273.913,102.968 Q273.903,102.738 273.893,102.568 Q273.873,102.298 273.818,102.028 Q273.763,101.758 273.643,101.533 Q273.523,101.308 273.333,101.143 Q273.143,100.978 272.853,100.898 L272.853,100.878 Q273.453,100.638 273.718,100.178 Q273.983,99.718 273.983,99.088 Q273.983,98.678 273.838,98.323 Q273.693,97.968 273.418,97.698 Q273.143,97.428 272.758,97.273 Q272.373,97.118 271.893,97.118 z M275.263,97.118 L275.263,104.258 L280.683,104.258 L280.683,102.938 L276.833,102.938 L276.833,101.188 L280.293,101.188 L280.293,99.968 L276.833,99.968 L276.833,98.438 L280.603,98.438 L280.603,97.118 z M282.813,101.888 L281.293,101.888 Q281.283,102.548 281.533,103.028 Q281.783,103.508 282.208,103.818 Q282.633,104.128 283.188,104.273 Q283.743,104.418 284.333,104.418 Q285.063,104.418 285.618,104.248 Q286.173,104.078 286.548,103.773 Q286.923,103.468 287.113,103.048 Q287.303,102.628 287.303,102.138 Q287.303,101.538 287.048,101.153 Q286.793,100.768 286.443,100.538 Q286.093,100.308 285.738,100.203 Q285.383,100.098 285.183,100.058 Q284.513,99.888 284.098,99.778 Q283.683,99.668 283.448,99.558 Q283.213,99.448 283.133,99.318 Q283.053,99.188 283.053,98.978 Q283.053,98.748 283.153,98.598 Q283.253,98.448 283.408,98.348 Q283.563,98.248 283.753,98.208 Q283.943,98.168 284.133,98.168 Q284.423,98.168 284.668,98.218 Q284.913,98.268 285.103,98.388 Q285.293,98.508 285.408,98.718 Q285.523,98.928 285.543,99.248 L287.063,99.248 Q287.063,98.628 286.828,98.193 Q286.593,97.758 286.193,97.478 Q285.793,97.198 285.278,97.073 Q284.763,96.948 284.203,96.948 Q283.723,96.948 283.243,97.078 Q282.763,97.208 282.383,97.478 Q282.003,97.748 281.768,98.153 Q281.533,98.558 281.533,99.108 Q281.533,99.598 281.718,99.943 Q281.903,100.288 282.203,100.518 Q282.503,100.748 282.883,100.893 Q283.263,101.038 283.663,101.138 Q284.053,101.248 284.433,101.338 Q284.813,101.428 285.113,101.548 Q285.413,101.668 285.598,101.848 Q285.783,102.028 285.783,102.318 Q285.783,102.588 285.643,102.763 Q285.503,102.938 285.293,103.038 Q285.083,103.138 284.843,103.173 Q284.603,103.208 284.393,103.208 Q284.083,103.208 283.793,103.133 Q283.503,103.058 283.288,102.903 Q283.073,102.748 282.943,102.498 Q282.813,102.248 282.813,101.888 z M288.233,97.118 L288.233,104.258 L293.653,104.258 L293.653,102.938 L289.803,102.938 L289.803,101.188 L293.263,101.188 L293.263,99.968 L289.803,99.968 L289.803,98.438 L293.573,98.438 L293.573,97.118 z M294.713,97.118 L294.713,104.258 L296.183,104.258 L296.183,99.478 L296.203,99.478 L299.173,104.258 L300.743,104.258 L300.743,97.118 L299.273,97.118 L299.273,101.908 L299.253,101.908 L296.273,97.118 z M303.703,98.438 L303.703,104.258 L305.273,104.258 L305.273,98.438 L307.413,98.438 L307.413,97.118 L301.563,97.118 L301.563,98.438 z M309.113,101.498 L310.043,98.878 L310.063,98.878 L310.963,101.498 z M309.263,97.118 L306.563,104.258 L308.143,104.258 L308.703,102.668 L311.373,102.668 L311.913,104.258 L313.543,104.258 L310.873,97.118 z M318.923,99.518 L320.443,99.518 Q320.373,98.898 320.103,98.418 Q319.833,97.938 319.418,97.613 Q319.003,97.288 318.478,97.118 Q317.953,96.948 317.363,96.948 Q316.543,96.948 315.888,97.238 Q315.233,97.528 314.783,98.038 Q314.333,98.548 314.093,99.233 Q313.853,99.918 313.853,100.718 Q313.853,101.498 314.093,102.173 Q314.333,102.848 314.783,103.348 Q315.233,103.848 315.888,104.133 Q316.543,104.418 317.363,104.418 Q318.023,104.418 318.573,104.218 Q319.123,104.018 319.533,103.638 Q319.943,103.258 320.193,102.718 Q320.443,102.178 320.503,101.508 L318.983,101.508 Q318.893,102.228 318.488,102.668 Q318.083,103.108 317.363,103.108 Q316.833,103.108 316.463,102.903 Q316.093,102.698 315.863,102.358 Q315.633,102.018 315.528,101.593 Q315.423,101.168 315.423,100.718 Q315.423,100.248 315.528,99.808 Q315.633,99.368 315.863,99.023 Q316.093,98.678 316.463,98.473 Q316.833,98.268 317.363,98.268 Q317.653,98.268 317.918,98.363 Q318.183,98.458 318.393,98.628 Q318.603,98.798 318.743,99.023 Q318.883,99.248 318.923,99.518 z M321.573,97.118 L321.573,104.258 L323.143,104.258 L323.143,97.118 z M327.963,96.478 L329.503,95.058 L327.933,95.058 L326.973,96.478 z M325.783,100.718 Q325.783,100.248 325.888,99.808 Q325.993,99.368 326.223,99.023 Q326.453,98.678 326.823,98.473 Q327.193,98.268 327.723,98.268 Q328.253,98.268 328.623,98.473 Q328.993,98.678 329.223,99.023 Q329.453,99.368 329.558,99.808 Q329.663,100.248 329.663,100.718 Q329.663,101.168 329.558,101.593 Q329.453,102.018 329.223,102.358 Q328.993,102.698 328.623,102.903 Q328.253,103.108 327.723,103.108 Q327.193,103.108 326.823,102.903 Q326.453,102.698 326.223,102.358 Q325.993,102.018 325.888,101.593 Q325.783,101.168 325.783,100.718 z M324.213,100.718 Q324.213,101.498 324.453,102.173 Q324.693,102.848 325.143,103.348 Q325.593,103.848 326.248,104.133 Q326.903,104.418 327.723,104.418 Q328.553,104.418 329.203,104.133 Q329.853,103.848 330.303,103.348 Q330.753,102.848 330.993,102.173 Q331.233,101.498 331.233,100.718 Q331.233,99.918 330.993,99.233 Q330.753,98.548 330.303,98.038 Q329.853,97.528 329.203,97.238 Q328.553,96.948 327.723,96.948 Q326.903,96.948 326.248,97.238 Q325.593,97.528 325.143,98.038 Q324.693,98.548 324.453,99.233 Q324.213,99.918 324.213,100.718 z M332.303,97.118 L332.303,104.258 L333.773,104.258 L333.773,99.478 L333.793,99.478 L336.763,104.258 L338.333,104.258 L338.333,97.118 L336.863,97.118 L336.863,101.908 L336.843,101.908 L333.863,97.118 z" fill="#FFFFFF"/>
    </g>
    <g>
      <text transform="matrix(1, 0, 0, 1, 203.297, 210.509)">
        <tspan x="-56.425" y="3.5" font-family="HelveticaNeue-Bold" font-size="10" fill="#FFFFFF">LÓGICA DE NEGOCIOS</tspan>
      </text>
      <path d="M147.562,206.869 L147.562,214.009 L152.612,214.009 L152.612,212.689 L149.132,212.689 L149.132,206.869 z M156.932,206.229 L158.472,204.809 L156.902,204.809 L155.942,206.229 z M154.752,210.469 Q154.752,209.999 154.857,209.559 Q154.962,209.119 155.192,208.774 Q155.422,208.429 155.792,208.224 Q156.162,208.019 156.692,208.019 Q157.222,208.019 157.592,208.224 Q157.962,208.429 158.192,208.774 Q158.422,209.119 158.527,209.559 Q158.632,209.999 158.632,210.469 Q158.632,210.919 158.527,211.344 Q158.422,211.769 158.192,212.109 Q157.962,212.449 157.592,212.654 Q157.222,212.859 156.692,212.859 Q156.162,212.859 155.792,212.654 Q155.422,212.449 155.192,212.109 Q154.962,211.769 154.857,211.344 Q154.752,210.919 154.752,210.469 z M153.182,210.469 Q153.182,211.249 153.422,211.924 Q153.662,212.599 154.112,213.099 Q154.562,213.599 155.217,213.884 Q155.872,214.169 156.692,214.169 Q157.522,214.169 158.172,213.884 Q158.822,213.599 159.272,213.099 Q159.722,212.599 159.962,211.924 Q160.202,211.249 160.202,210.469 Q160.202,209.669 159.962,208.984 Q159.722,208.299 159.272,207.789 Q158.822,207.279 158.172,206.989 Q157.522,206.699 156.692,206.699 Q155.872,206.699 155.217,206.989 Q154.562,207.279 154.112,207.789 Q153.662,208.299 153.422,208.984 Q153.182,209.669 153.182,210.469 z M166.432,213.199 L166.592,214.009 L167.592,214.009 L167.592,210.149 L164.592,210.149 L164.592,211.319 L166.172,211.319 Q166.102,212.069 165.677,212.464 Q165.252,212.859 164.472,212.859 Q163.942,212.859 163.572,212.654 Q163.202,212.449 162.972,212.109 Q162.742,211.769 162.637,211.344 Q162.532,210.919 162.532,210.469 Q162.532,209.999 162.637,209.559 Q162.742,209.119 162.972,208.774 Q163.202,208.429 163.572,208.224 Q163.942,208.019 164.472,208.019 Q165.042,208.019 165.442,208.319 Q165.842,208.619 165.982,209.219 L167.482,209.219 Q167.422,208.609 167.152,208.139 Q166.882,207.669 166.467,207.349 Q166.052,207.029 165.537,206.864 Q165.022,206.699 164.472,206.699 Q163.652,206.699 162.997,206.989 Q162.342,207.279 161.892,207.789 Q161.442,208.299 161.202,208.984 Q160.962,209.669 160.962,210.469 Q160.962,211.249 161.202,211.924 Q161.442,212.599 161.892,213.099 Q162.342,213.599 162.997,213.884 Q163.652,214.169 164.472,214.169 Q164.992,214.169 165.502,213.954 Q166.012,213.739 166.432,213.199 z M168.862,206.869 L168.862,214.009 L170.432,214.009 L170.432,206.869 z M176.572,209.269 L178.092,209.269 Q178.022,208.649 177.752,208.169 Q177.482,207.689 177.067,207.364 Q176.652,207.039 176.127,206.869 Q175.602,206.699 175.012,206.699 Q174.192,206.699 173.537,206.989 Q172.882,207.279 172.432,207.789 Q171.982,208.299 171.742,208.984 Q171.502,209.669 171.502,210.469 Q171.502,211.249 171.742,211.924 Q171.982,212.599 172.432,213.099 Q172.882,213.599 173.537,213.884 Q174.192,214.169 175.012,214.169 Q175.672,214.169 176.222,213.969 Q176.772,213.769 177.182,213.389 Q177.592,213.009 177.842,212.469 Q178.092,211.929 178.152,211.259 L176.632,211.259 Q176.542,211.979 176.137,212.419 Q175.732,212.859 175.012,212.859 Q174.482,212.859 174.112,212.654 Q173.742,212.449 173.512,212.109 Q173.282,211.769 173.177,211.344 Q173.072,210.919 173.072,210.469 Q173.072,209.999 173.177,209.559 Q173.282,209.119 173.512,208.774 Q173.742,208.429 174.112,208.224 Q174.482,208.019 175.012,208.019 Q175.302,208.019 175.567,208.114 Q175.832,208.209 176.042,208.379 Q176.252,208.549 176.392,208.774 Q176.532,208.999 176.572,209.269 z M181.022,211.249 L181.952,208.629 L181.972,208.629 L182.872,211.249 z M181.172,206.869 L178.472,214.009 L180.052,214.009 L180.612,212.419 L183.282,212.419 L183.822,214.009 L185.452,214.009 L182.782,206.869 z M190.422,212.689 L190.422,208.189 L191.542,208.189 Q192.122,208.189 192.517,208.354 Q192.912,208.519 193.152,208.829 Q193.392,209.139 193.497,209.574 Q193.602,210.009 193.602,210.549 Q193.602,211.139 193.452,211.549 Q193.302,211.959 193.052,212.214 Q192.802,212.469 192.482,212.579 Q192.162,212.689 191.822,212.689 z M188.852,206.869 L188.852,214.009 L191.932,214.009 Q192.752,214.009 193.357,213.734 Q193.962,213.459 194.367,212.979 Q194.772,212.499 194.972,211.839 Q195.172,211.179 195.172,210.399 Q195.172,209.509 194.927,208.849 Q194.682,208.189 194.247,207.749 Q193.812,207.309 193.217,207.089 Q192.622,206.869 191.932,206.869 z M196.262,206.869 L196.262,214.009 L201.682,214.009 L201.682,212.689 L197.832,212.689 L197.832,210.939 L201.292,210.939 L201.292,209.719 L197.832,209.719 L197.832,208.189 L201.602,208.189 L201.602,206.869 z M205.522,206.869 L205.522,214.009 L206.992,214.009 L206.992,209.229 L207.012,209.229 L209.982,214.009 L211.552,214.009 L211.552,206.869 L210.082,206.869 L210.082,211.659 L210.062,211.659 L207.082,206.869 z M212.932,206.869 L212.932,214.009 L218.352,214.009 L218.352,212.689 L214.502,212.689 L214.502,210.939 L217.962,210.939 L217.962,209.719 L214.502,209.719 L214.502,208.189 L218.272,208.189 L218.272,206.869 z M224.572,213.199 L224.732,214.009 L225.732,214.009 L225.732,210.149 L222.732,210.149 L222.732,211.319 L224.312,211.319 Q224.242,212.069 223.817,212.464 Q223.392,212.859 222.612,212.859 Q222.082,212.859 221.712,212.654 Q221.342,212.449 221.112,212.109 Q220.882,211.769 220.777,211.344 Q220.672,210.919 220.672,210.469 Q220.672,209.999 220.777,209.559 Q220.882,209.119 221.112,208.774 Q221.342,208.429 221.712,208.224 Q222.082,208.019 222.612,208.019 Q223.182,208.019 223.582,208.319 Q223.982,208.619 224.122,209.219 L225.622,209.219 Q225.562,208.609 225.292,208.139 Q225.022,207.669 224.607,207.349 Q224.192,207.029 223.677,206.864 Q223.162,206.699 222.612,206.699 Q221.792,206.699 221.137,206.989 Q220.482,207.279 220.032,207.789 Q219.582,208.299 219.342,208.984 Q219.102,209.669 219.102,210.469 Q219.102,211.249 219.342,211.924 Q219.582,212.599 220.032,213.099 Q220.482,213.599 221.137,213.884 Q221.792,214.169 222.612,214.169 Q223.132,214.169 223.642,213.954 Q224.152,213.739 224.572,213.199 z M228.262,210.469 Q228.262,209.999 228.367,209.559 Q228.472,209.119 228.702,208.774 Q228.932,208.429 229.302,208.224 Q229.672,208.019 230.202,208.019 Q230.732,208.019 231.102,208.224 Q231.472,208.429 231.702,208.774 Q231.932,209.119 232.037,209.559 Q232.142,209.999 232.142,210.469 Q232.142,210.919 232.037,211.344 Q231.932,211.769 231.702,212.109 Q231.472,212.449 231.102,212.654 Q230.732,212.859 230.202,212.859 Q229.672,212.859 229.302,212.654 Q228.932,212.449 228.702,212.109 Q228.472,211.769 228.367,211.344 Q228.262,210.919 228.262,210.469 z M226.692,210.469 Q226.692,211.249 226.932,211.924 Q227.172,212.599 227.622,213.099 Q228.072,213.599 228.727,213.884 Q229.382,214.169 230.202,214.169 Q231.032,214.169 231.682,213.884 Q232.332,213.599 232.782,213.099 Q233.232,212.599 233.472,211.924 Q233.712,211.249 233.712,210.469 Q233.712,209.669 233.472,208.984 Q233.232,208.299 232.782,207.789 Q232.332,207.279 231.682,206.989 Q231.032,206.699 230.202,206.699 Q229.382,206.699 228.727,206.989 Q228.072,207.279 227.622,207.789 Q227.172,208.299 226.932,208.984 Q226.692,209.669 226.692,210.469 z M239.542,209.269 L241.062,209.269 Q240.992,208.649 240.722,208.169 Q240.452,207.689 240.037,207.364 Q239.622,207.039 239.097,206.869 Q238.572,206.699 237.982,206.699 Q237.162,206.699 236.507,206.989 Q235.852,207.279 235.402,207.789 Q234.952,208.299 234.712,208.984 Q234.472,209.669 234.472,210.469 Q234.472,211.249 234.712,211.924 Q234.952,212.599 235.402,213.099 Q235.852,213.599 236.507,213.884 Q237.162,214.169 237.982,214.169 Q238.642,214.169 239.192,213.969 Q239.742,213.769 240.152,213.389 Q240.562,213.009 240.812,212.469 Q241.062,211.929 241.122,211.259 L239.602,211.259 Q239.512,211.979 239.107,212.419 Q238.702,212.859 237.982,212.859 Q237.452,212.859 237.082,212.654 Q236.712,212.449 236.482,212.109 Q236.252,211.769 236.147,211.344 Q236.042,210.919 236.042,210.469 Q236.042,209.999 236.147,209.559 Q236.252,209.119 236.482,208.774 Q236.712,208.429 237.082,208.224 Q237.452,208.019 237.982,208.019 Q238.272,208.019 238.537,208.114 Q238.802,208.209 239.012,208.379 Q239.222,208.549 239.362,208.774 Q239.502,208.999 239.542,209.269 z M242.192,206.869 L242.192,214.009 L243.762,214.009 L243.762,206.869 z M246.402,210.469 Q246.402,209.999 246.507,209.559 Q246.612,209.119 246.842,208.774 Q247.072,208.429 247.442,208.224 Q247.812,208.019 248.342,208.019 Q248.872,208.019 249.242,208.224 Q249.612,208.429 249.842,208.774 Q250.072,209.119 250.177,209.559 Q250.282,209.999 250.282,210.469 Q250.282,210.919 250.177,211.344 Q250.072,211.769 249.842,212.109 Q249.612,212.449 249.242,212.654 Q248.872,212.859 248.342,212.859 Q247.812,212.859 247.442,212.654 Q247.072,212.449 246.842,212.109 Q246.612,211.769 246.507,211.344 Q246.402,210.919 246.402,210.469 z M244.832,210.469 Q244.832,211.249 245.072,211.924 Q245.312,212.599 245.762,213.099 Q246.212,213.599 246.867,213.884 Q247.522,214.169 248.342,214.169 Q249.172,214.169 249.822,213.884 Q250.472,213.599 250.922,213.099 Q251.372,212.599 251.612,211.924 Q251.852,211.249 251.852,210.469 Q251.852,209.669 251.612,208.984 Q251.372,208.299 250.922,207.789 Q250.472,207.279 249.822,206.989 Q249.172,206.699 248.342,206.699 Q247.522,206.699 246.867,206.989 Q246.212,207.279 245.762,207.789 Q245.312,208.299 245.072,208.984 Q244.832,209.669 244.832,210.469 z M253.992,211.639 L252.472,211.639 Q252.462,212.299 252.712,212.779 Q252.962,213.259 253.387,213.569 Q253.812,213.879 254.367,214.024 Q254.922,214.169 255.512,214.169 Q256.242,214.169 256.797,213.999 Q257.352,213.829 257.727,213.524 Q258.102,213.219 258.292,212.799 Q258.482,212.379 258.482,211.889 Q258.482,211.289 258.227,210.904 Q257.972,210.519 257.622,210.289 Q257.272,210.059 256.917,209.954 Q256.562,209.849 256.362,209.809 Q255.692,209.639 255.277,209.529 Q254.862,209.419 254.627,209.309 Q254.392,209.199 254.312,209.069 Q254.232,208.939 254.232,208.729 Q254.232,208.499 254.332,208.349 Q254.432,208.199 254.587,208.099 Q254.742,207.999 254.932,207.959 Q255.122,207.919 255.312,207.919 Q255.602,207.919 255.847,207.969 Q256.092,208.019 256.282,208.139 Q256.472,208.259 256.587,208.469 Q256.702,208.679 256.722,208.999 L258.242,208.999 Q258.242,208.379 258.007,207.944 Q257.772,207.509 257.372,207.229 Q256.972,206.949 256.457,206.824 Q255.942,206.699 255.382,206.699 Q254.902,206.699 254.422,206.829 Q253.942,206.959 253.562,207.229 Q253.182,207.499 252.947,207.904 Q252.712,208.309 252.712,208.859 Q252.712,209.349 252.897,209.694 Q253.082,210.039 253.382,210.269 Q253.682,210.499 254.062,210.644 Q254.442,210.789 254.842,210.889 Q255.232,210.999 255.612,211.089 Q255.992,211.179 256.292,211.299 Q256.592,211.419 256.777,211.599 Q256.962,211.779 256.962,212.069 Q256.962,212.339 256.822,212.514 Q256.682,212.689 256.472,212.789 Q256.262,212.889 256.022,212.924 Q255.782,212.959 255.572,212.959 Q255.262,212.959 254.972,212.884 Q254.682,212.809 254.467,212.654 Q254.252,212.499 254.122,212.249 Q253.992,211.999 253.992,211.639 z" fill="#FFFFFF"/>
    </g>
    <g>
      <text transform="matrix(1, 0, 0, 1, 199.282, 249.329)">
        <tspan x="-17.36" y="3.5" font-family="HelveticaNeue-Bold" font-size="10" fill="#FFFFFF">DATOS</tspan>
      </text>
      <path d="M184.182,251.509 L184.182,247.009 L185.302,247.009 Q185.882,247.009 186.277,247.174 Q186.672,247.339 186.912,247.649 Q187.152,247.959 187.257,248.394 Q187.362,248.829 187.362,249.369 Q187.362,249.959 187.212,250.369 Q187.062,250.779 186.812,251.034 Q186.562,251.289 186.242,251.399 Q185.922,251.509 185.582,251.509 z M182.612,245.689 L182.612,252.829 L185.692,252.829 Q186.512,252.829 187.117,252.554 Q187.722,252.279 188.127,251.799 Q188.532,251.319 188.732,250.659 Q188.932,249.999 188.932,249.219 Q188.932,248.329 188.687,247.669 Q188.442,247.009 188.007,246.569 Q187.572,246.129 186.977,245.909 Q186.382,245.689 185.692,245.689 z M191.822,250.069 L192.752,247.449 L192.772,247.449 L193.672,250.069 z M191.972,245.689 L189.272,252.829 L190.852,252.829 L191.412,251.239 L194.082,251.239 L194.622,252.829 L196.252,252.829 L193.582,245.689 z M197.532,247.009 L197.532,252.829 L199.102,252.829 L199.102,247.009 L201.242,247.009 L201.242,245.689 L195.392,245.689 L195.392,247.009 z M203.322,249.289 Q203.322,248.819 203.427,248.379 Q203.532,247.939 203.762,247.594 Q203.992,247.249 204.362,247.044 Q204.732,246.839 205.262,246.839 Q205.792,246.839 206.162,247.044 Q206.532,247.249 206.762,247.594 Q206.992,247.939 207.097,248.379 Q207.202,248.819 207.202,249.289 Q207.202,249.739 207.097,250.164 Q206.992,250.589 206.762,250.929 Q206.532,251.269 206.162,251.474 Q205.792,251.679 205.262,251.679 Q204.732,251.679 204.362,251.474 Q203.992,251.269 203.762,250.929 Q203.532,250.589 203.427,250.164 Q203.322,249.739 203.322,249.289 z M201.752,249.289 Q201.752,250.069 201.992,250.744 Q202.232,251.419 202.682,251.919 Q203.132,252.419 203.787,252.704 Q204.442,252.989 205.262,252.989 Q206.092,252.989 206.742,252.704 Q207.392,252.419 207.842,251.919 Q208.292,251.419 208.532,250.744 Q208.772,250.069 208.772,249.289 Q208.772,248.489 208.532,247.804 Q208.292,247.119 207.842,246.609 Q207.392,246.099 206.742,245.809 Q206.092,245.519 205.262,245.519 Q204.442,245.519 203.787,245.809 Q203.132,246.099 202.682,246.609 Q202.232,247.119 201.992,247.804 Q201.752,248.489 201.752,249.289 z M210.912,250.459 L209.392,250.459 Q209.382,251.119 209.632,251.599 Q209.882,252.079 210.307,252.389 Q210.732,252.699 211.287,252.844 Q211.842,252.989 212.432,252.989 Q213.162,252.989 213.717,252.819 Q214.272,252.649 214.647,252.344 Q215.022,252.039 215.212,251.619 Q215.402,251.199 215.402,250.709 Q215.402,250.109 215.147,249.724 Q214.892,249.339 214.542,249.109 Q214.192,248.879 213.837,248.774 Q213.482,248.669 213.282,248.629 Q212.612,248.459 212.197,248.349 Q211.782,248.239 211.547,248.129 Q211.312,248.019 211.232,247.889 Q211.152,247.759 211.152,247.549 Q211.152,247.319 211.252,247.169 Q211.352,247.019 211.507,246.919 Q211.662,246.819 211.852,246.779 Q212.042,246.739 212.232,246.739 Q212.522,246.739 212.767,246.789 Q213.012,246.839 213.202,246.959 Q213.392,247.079 213.507,247.289 Q213.622,247.499 213.642,247.819 L215.162,247.819 Q215.162,247.199 214.927,246.764 Q214.692,246.329 214.292,246.049 Q213.892,245.769 213.377,245.644 Q212.862,245.519 212.302,245.519 Q211.822,245.519 211.342,245.649 Q210.862,245.779 210.482,246.049 Q210.102,246.319 209.867,246.724 Q209.632,247.129 209.632,247.679 Q209.632,248.169 209.817,248.514 Q210.002,248.859 210.302,249.089 Q210.602,249.319 210.982,249.464 Q211.362,249.609 211.762,249.709 Q212.152,249.819 212.532,249.909 Q212.912,249.999 213.212,250.119 Q213.512,250.239 213.697,250.419 Q213.882,250.599 213.882,250.889 Q213.882,251.159 213.742,251.334 Q213.602,251.509 213.392,251.609 Q213.182,251.709 212.942,251.744 Q212.702,251.779 212.492,251.779 Q212.182,251.779 211.892,251.704 Q211.602,251.629 211.387,251.474 Q211.172,251.319 211.042,251.069 Q210.912,250.819 210.912,250.459 z" fill="#FFFFFF"/>
    </g>
    <text transform="matrix(1, 0, 0, 1, 311.423, 146.395)">
      <tspan x="-48.56" y="3.5" font-family="HelveticaNeue-Bold" font-size="10" fill="#30B5FF">LADO DEL CLIENTE</tspan>
    </text>
    <text transform="matrix(1, 0, 0, 1, 311.423, 170.779)">
      <tspan x="-53.01" y="3.5" font-family="HelveticaNeue-Bold" font-size="10" fill="#30B5FF">LADO DEL SERVIDOR</tspan>
    </text>
    <g>
      <path d="M194.774,139.519 C200.516,149.861 197.645,144.689 203.387,155.031 L199.56,155.031 L199.56,176.12 L190.297,176.12 L190.297,155.031 L186.162,155.031 L190.468,147.275 z" fill="#F9963B"/>
      <path d="M194.774,139.519 C200.516,149.861 197.645,144.689 203.387,155.031 L199.56,155.031 L199.56,176.12 L190.297,176.12 L190.297,155.031 L186.162,155.031 L190.468,147.275 z" fill-opacity="0" stroke="#000000" stroke-width="1"/>
    </g>
    <g>
      <path d="M216.401,176.805 C210.659,166.463 213.531,171.635 207.789,161.293 L211.616,161.293 L211.616,140.204 L220.879,140.204 L220.879,161.293 L225.013,161.293 L220.707,169.049 z" fill="#F9963B"/>
      <path d="M216.401,176.805 C210.659,166.463 213.531,171.635 207.789,161.293 L211.616,161.293 L211.616,140.204 L220.879,140.204 L220.879,161.293 L225.013,161.293 L220.707,169.049 z" fill-opacity="0" stroke="#000000" stroke-width="1"/>
    </g>
    <text transform="matrix(1, 0, 0, 1, 136.344, 149.651)">
      <tspan x="-15.728" y="4" font-family="HelveticaNeue-Bold" font-size="12" fill="#C44E47">DATA</tspan>
    </text>
    <text transform="matrix(1, 0, 0, 1, 138.961, 169.279)">
      <tspan x="-36.734" y="4" font-family="HelveticaNeue-Bold" font-size="12" fill="#C44E47">(JSON, XML)</tspan>
    </text>
  </g>
  <defs/>
</svg>
