<?xml version="1.0" encoding="UTF-8"?>
<!DOCTYPE svg PUBLIC "-//W3C//DTD SVG 1.1//EN" "http://www.w3.org/Graphics/SVG/1.1/DTD/svg11.dtd">
<svg version="1.1" xmlns="http://www.w3.org/2000/svg" xmlns:xlink="http://www.w3.org/1999/xlink" x="0px" y="0px" width="400" height="300" viewBox="0, 0, 400, 300">
  <g id="Background">
    <rect x="0" y="0" width="400" height="300" fill="#FFFFFF"/>
  </g>
  <g id="Layer 1">
    <g>
      <path d="M54.82,237.214 L343.629,237.214 C346.39,237.214 348.629,239.452 348.629,242.214 L348.629,261.682 C348.629,264.444 346.39,266.682 343.629,266.682 L54.82,266.682 C52.059,266.682 49.82,264.444 49.82,261.682 L49.82,242.214 C49.82,239.452 52.059,237.214 54.82,237.214 z" fill="#F9963B"/>
      <path d="M54.82,237.214 L343.629,237.214 C346.39,237.214 348.629,239.452 348.629,242.214 L348.629,261.682 C348.629,264.444 346.39,266.682 343.629,266.682 L54.82,266.682 C52.059,266.682 49.82,264.444 49.82,261.682 L49.82,242.214 C49.82,239.452 52.059,237.214 54.82,237.214 z" fill-opacity="0" stroke="#000000" stroke-width="1"/>
    </g>
    <g>
      <path d="M54.82,198.498 L343.629,198.498 C346.39,198.498 348.629,200.736 348.629,203.498 L348.629,222.966 C348.629,225.728 346.39,227.966 343.629,227.966 L54.82,227.966 C52.059,227.966 49.82,225.728 49.82,222.966 L49.82,203.498 C49.82,200.736 52.059,198.498 54.82,198.498 z" fill="#8063A4"/>
      <path d="M54.82,198.498 L343.629,198.498 C346.39,198.498 348.629,200.736 348.629,203.498 L348.629,222.966 C348.629,225.728 346.39,227.966 343.629,227.966 L54.82,227.966 C52.059,227.966 49.82,225.728 49.82,222.966 L49.82,203.498 C49.82,200.736 52.059,198.498 54.82,198.498 z" fill-opacity="0" stroke="#000000" stroke-width="1"/>
    </g>
    <g>
      <path d="M67.023,152.844 L137.795,152.844 C143.153,152.844 147.497,157.545 147.497,163.344 L147.497,173.182 C147.497,178.981 143.153,183.682 137.795,183.682 L67.023,183.682 C61.664,183.682 57.32,178.981 57.32,173.182 L57.32,163.344 C57.32,157.545 61.664,152.844 67.023,152.844 z" fill="#4D7FC0"/>
      <path d="M67.023,152.844 L137.795,152.844 C143.153,152.844 147.497,157.545 147.497,163.344 L147.497,173.182 C147.497,178.981 143.153,183.682 137.795,183.682 L67.023,183.682 C61.664,183.682 57.32,178.981 57.32,173.182 L57.32,163.344 C57.32,157.545 61.664,152.844 67.023,152.844 z" fill-opacity="0" stroke="#000000" stroke-width="1"/>
    </g>
    <g>
      <path d="M164.409,152.844 L235.181,152.844 C240.539,152.844 244.883,157.545 244.883,163.344 L244.883,173.182 C244.883,178.981 240.539,183.682 235.181,183.682 L164.409,183.682 C159.051,183.682 154.707,178.981 154.707,173.182 L154.707,163.344 C154.707,157.545 159.051,152.844 164.409,152.844 z" fill="#C24F4A"/>
      <path d="M164.409,152.844 L235.181,152.844 C240.539,152.844 244.883,157.545 244.883,163.344 L244.883,173.182 C244.883,178.981 240.539,183.682 235.181,183.682 L164.409,183.682 C159.051,183.682 154.707,178.981 154.707,173.182 L154.707,163.344 C154.707,157.545 159.051,152.844 164.409,152.844 z" fill-opacity="0" stroke="#000000" stroke-width="1"/>
    </g>
    <g>
      <path d="M261.134,152.844 L331.905,152.844 C337.264,152.844 341.608,157.545 341.608,163.344 L341.608,173.182 C341.608,178.981 337.264,183.682 331.905,183.682 L261.134,183.682 C255.775,183.682 251.431,178.981 251.431,173.182 L251.431,163.344 C251.431,157.545 255.775,152.844 261.134,152.844 z" fill="#9BBC52"/>
      <path d="M261.134,152.844 L331.905,152.844 C337.264,152.844 341.608,157.545 341.608,163.344 L341.608,173.182 C341.608,178.981 337.264,183.682 331.905,183.682 L261.134,183.682 C255.775,183.682 251.431,178.981 251.431,173.182 L251.431,163.344 C251.431,157.545 255.775,152.844 261.134,152.844 z" fill-opacity="0" stroke="#000000" stroke-width="1"/>
    </g>
    <path d="M25.456,107.327 L372.296,107.349" fill-opacity="0" stroke="#30B5FF" stroke-width="2" stroke-dasharray="6,4" stroke-linecap="round" stroke-linejoin="round"/>
    <path d="M54.82,142.86 L343.629,142.86 C346.39,142.86 348.629,146.611 348.629,151.239 L348.629,183.865 C348.629,188.492 346.39,192.244 343.629,192.244 L54.82,192.244 C52.059,192.244 49.82,188.492 49.82,183.865 L49.82,151.239 C49.82,146.611 52.059,142.86 54.82,142.86 z" fill-opacity="0" stroke="#000000" stroke-width="1"/>
    <g>
      <path d="M67.023,30.02 L137.795,30.02 C143.153,30.02 147.497,36.583 147.497,44.679 L147.497,58.412 C147.497,66.509 143.153,73.072 137.795,73.072 L67.023,73.072 C61.664,73.072 57.32,66.509 57.32,58.412 L57.32,44.679 C57.32,36.583 61.664,30.02 67.023,30.02 z" fill="#4D7FC0"/>
      <path d="M67.023,30.02 L137.795,30.02 C143.153,30.02 147.497,36.583 147.497,44.679 L147.497,58.412 C147.497,66.509 143.153,73.072 137.795,73.072 L67.023,73.072 C61.664,73.072 57.32,66.509 57.32,58.412 L57.32,44.679 C57.32,36.583 61.664,30.02 67.023,30.02 z" fill-opacity="0" stroke="#000000" stroke-width="1"/>
    </g>
    <g>
      <path d="M164.409,30.02 L235.181,30.02 C240.539,30.02 244.883,36.583 244.883,44.679 L244.883,58.412 C244.883,66.509 240.539,73.072 235.181,73.072 L164.409,73.072 C159.051,73.072 154.707,66.509 154.707,58.412 L154.707,44.679 C154.707,36.583 159.051,30.02 164.409,30.02 z" fill="#C24F4A"/>
      <path d="M164.409,30.02 L235.181,30.02 C240.539,30.02 244.883,36.583 244.883,44.679 L244.883,58.412 C244.883,66.509 240.539,73.072 235.181,73.072 L164.409,73.072 C159.051,73.072 154.707,66.509 154.707,58.412 L154.707,44.679 C154.707,36.583 159.051,30.02 164.409,30.02 z" fill-opacity="0" stroke="#000000" stroke-width="1"/>
    </g>
    <g>
      <path d="M261.134,30.02 L331.905,30.02 C337.264,30.02 341.608,36.583 341.608,44.679 L341.608,58.412 C341.608,66.509 337.264,73.072 331.905,73.072 L261.134,73.072 C255.775,73.072 251.431,66.509 251.431,58.412 L251.431,44.679 C251.431,36.583 255.775,30.02 261.134,30.02 z" fill="#9BBC52"/>
      <path d="M261.134,30.02 L331.905,30.02 C337.264,30.02 341.608,36.583 341.608,44.679 L341.608,58.412 C341.608,66.509 337.264,73.072 331.905,73.072 L261.134,73.072 C255.775,73.072 251.431,66.509 251.431,58.412 L251.431,44.679 C251.431,36.583 255.775,30.02 261.134,30.02 z" fill-opacity="0" stroke="#000000" stroke-width="1"/>
    </g>
    <g>
      <text transform="matrix(1, 0, 0, 1, 102.409, 51.046)">
        <tspan x="-21.885" y="3.5" font-family="HelveticaNeue-Bold" font-size="10" fill="#FFFFFF">CLIENTE</tspan>
      </text>
      <path d="M85.974,49.806 L87.494,49.806 Q87.424,49.186 87.154,48.706 Q86.884,48.226 86.469,47.901 Q86.054,47.576 85.529,47.406 Q85.004,47.236 84.414,47.236 Q83.594,47.236 82.939,47.526 Q82.284,47.816 81.834,48.326 Q81.384,48.836 81.144,49.521 Q80.904,50.206 80.904,51.006 Q80.904,51.786 81.144,52.461 Q81.384,53.136 81.834,53.636 Q82.284,54.136 82.939,54.421 Q83.594,54.706 84.414,54.706 Q85.074,54.706 85.624,54.506 Q86.174,54.306 86.584,53.926 Q86.994,53.546 87.244,53.006 Q87.494,52.466 87.554,51.796 L86.034,51.796 Q85.944,52.516 85.539,52.956 Q85.134,53.396 84.414,53.396 Q83.884,53.396 83.514,53.191 Q83.144,52.986 82.914,52.646 Q82.684,52.306 82.579,51.881 Q82.474,51.456 82.474,51.006 Q82.474,50.536 82.579,50.096 Q82.684,49.656 82.914,49.311 Q83.144,48.966 83.514,48.761 Q83.884,48.556 84.414,48.556 Q84.704,48.556 84.969,48.651 Q85.234,48.746 85.444,48.916 Q85.654,49.086 85.794,49.311 Q85.934,49.536 85.974,49.806 z M88.624,47.406 L88.624,54.546 L93.674,54.546 L93.674,53.226 L90.194,53.226 L90.194,47.406 z M94.554,47.406 L94.554,54.546 L96.124,54.546 L96.124,47.406 z M97.504,47.406 L97.504,54.546 L102.924,54.546 L102.924,53.226 L99.074,53.226 L99.074,51.476 L102.534,51.476 L102.534,50.256 L99.074,50.256 L99.074,48.726 L102.844,48.726 L102.844,47.406 z M103.984,47.406 L103.984,54.546 L105.454,54.546 L105.454,49.766 L105.474,49.766 L108.444,54.546 L110.014,54.546 L110.014,47.406 L108.544,47.406 L108.544,52.196 L108.524,52.196 L105.544,47.406 z M112.974,48.726 L112.974,54.546 L114.544,54.546 L114.544,48.726 L116.684,48.726 L116.684,47.406 L110.834,47.406 L110.834,48.726 z M117.504,47.406 L117.504,54.546 L122.924,54.546 L122.924,53.226 L119.074,53.226 L119.074,51.476 L122.534,51.476 L122.534,50.256 L119.074,50.256 L119.074,48.726 L122.844,48.726 L122.844,47.406 z" fill="#FFFFFF"/>
    </g>
    <g>
      <text transform="matrix(1, 0, 0, 1, 199.795, 51.046)">
        <tspan x="-21.885" y="3.5" font-family="HelveticaNeue-Bold" font-size="10" fill="#FFFFFF">CLIENTE</tspan>
      </text>
      <path d="M183.36,49.806 L184.88,49.806 Q184.81,49.186 184.54,48.706 Q184.27,48.226 183.855,47.901 Q183.44,47.576 182.915,47.406 Q182.39,47.236 181.8,47.236 Q180.98,47.236 180.325,47.526 Q179.67,47.816 179.22,48.326 Q178.77,48.836 178.53,49.521 Q178.29,50.206 178.29,51.006 Q178.29,51.786 178.53,52.461 Q178.77,53.136 179.22,53.636 Q179.67,54.136 180.325,54.421 Q180.98,54.706 181.8,54.706 Q182.46,54.706 183.01,54.506 Q183.56,54.306 183.97,53.926 Q184.38,53.546 184.63,53.006 Q184.88,52.466 184.94,51.796 L183.42,51.796 Q183.33,52.516 182.925,52.956 Q182.52,53.396 181.8,53.396 Q181.27,53.396 180.9,53.191 Q180.53,52.986 180.3,52.646 Q180.07,52.306 179.965,51.881 Q179.86,51.456 179.86,51.006 Q179.86,50.536 179.965,50.096 Q180.07,49.656 180.3,49.311 Q180.53,48.966 180.9,48.761 Q181.27,48.556 181.8,48.556 Q182.09,48.556 182.355,48.651 Q182.62,48.746 182.83,48.916 Q183.04,49.086 183.18,49.311 Q183.32,49.536 183.36,49.806 z M186.01,47.406 L186.01,54.546 L191.06,54.546 L191.06,53.226 L187.58,53.226 L187.58,47.406 z M191.94,47.406 L191.94,54.546 L193.51,54.546 L193.51,47.406 z M194.89,47.406 L194.89,54.546 L200.31,54.546 L200.31,53.226 L196.46,53.226 L196.46,51.476 L199.92,51.476 L199.92,50.256 L196.46,50.256 L196.46,48.726 L200.23,48.726 L200.23,47.406 z M201.37,47.406 L201.37,54.546 L202.84,54.546 L202.84,49.766 L202.86,49.766 L205.83,54.546 L207.4,54.546 L207.4,47.406 L205.93,47.406 L205.93,52.196 L205.91,52.196 L202.93,47.406 z M210.36,48.726 L210.36,54.546 L211.93,54.546 L211.93,48.726 L214.07,48.726 L214.07,47.406 L208.22,47.406 L208.22,48.726 z M214.89,47.406 L214.89,54.546 L220.31,54.546 L220.31,53.226 L216.46,53.226 L216.46,51.476 L219.92,51.476 L219.92,50.256 L216.46,50.256 L216.46,48.726 L220.23,48.726 L220.23,47.406 z" fill="#FFFFFF"/>
    </g>
    <g>
      <text transform="matrix(1, 0, 0, 1, 296.52, 51.046)">
        <tspan x="-21.885" y="3.5" font-family="HelveticaNeue-Bold" font-size="10" fill="#FFFFFF">CLIENTE</tspan>
      </text>
      <path d="M280.085,49.806 L281.605,49.806 Q281.535,49.186 281.265,48.706 Q280.995,48.226 280.58,47.901 Q280.165,47.576 279.64,47.406 Q279.115,47.236 278.525,47.236 Q277.705,47.236 277.05,47.526 Q276.395,47.816 275.945,48.326 Q275.495,48.836 275.255,49.521 Q275.015,50.206 275.015,51.006 Q275.015,51.786 275.255,52.461 Q275.495,53.136 275.945,53.636 Q276.395,54.136 277.05,54.421 Q277.705,54.706 278.525,54.706 Q279.185,54.706 279.735,54.506 Q280.285,54.306 280.695,53.926 Q281.105,53.546 281.355,53.006 Q281.605,52.466 281.665,51.796 L280.145,51.796 Q280.055,52.516 279.65,52.956 Q279.245,53.396 278.525,53.396 Q277.995,53.396 277.625,53.191 Q277.255,52.986 277.025,52.646 Q276.795,52.306 276.69,51.881 Q276.585,51.456 276.585,51.006 Q276.585,50.536 276.69,50.096 Q276.795,49.656 277.025,49.311 Q277.255,48.966 277.625,48.761 Q277.995,48.556 278.525,48.556 Q278.815,48.556 279.08,48.651 Q279.345,48.746 279.555,48.916 Q279.765,49.086 279.905,49.311 Q280.045,49.536 280.085,49.806 z M282.735,47.406 L282.735,54.546 L287.785,54.546 L287.785,53.226 L284.305,53.226 L284.305,47.406 z M288.665,47.406 L288.665,54.546 L290.235,54.546 L290.235,47.406 z M291.615,47.406 L291.615,54.546 L297.035,54.546 L297.035,53.226 L293.185,53.226 L293.185,51.476 L296.645,51.476 L296.645,50.256 L293.185,50.256 L293.185,48.726 L296.955,48.726 L296.955,47.406 z M298.095,47.406 L298.095,54.546 L299.565,54.546 L299.565,49.766 L299.585,49.766 L302.555,54.546 L304.125,54.546 L304.125,47.406 L302.655,47.406 L302.655,52.196 L302.635,52.196 L299.655,47.406 z M307.085,48.726 L307.085,54.546 L308.655,54.546 L308.655,48.726 L310.795,48.726 L310.795,47.406 L304.945,47.406 L304.945,48.726 z M311.615,47.406 L311.615,54.546 L317.035,54.546 L317.035,53.226 L313.185,53.226 L313.185,51.476 L316.645,51.476 L316.645,50.256 L313.185,50.256 L313.185,48.726 L316.955,48.726 L316.955,47.406 z" fill="#FFFFFF"/>
    </g>
    <g>
      <text transform="matrix(1, 0, 0, 1, 296.52, 168.305)">
        <tspan x="-39.67" y="3.5" font-family="HelveticaNeue-Bold" font-size="10" fill="#FFFFFF">PRESENTACIÓN</tspan>
      </text>
      <path d="M259.11,168.025 L259.11,165.885 L260.33,165.885 Q260.6,165.885 260.85,165.925 Q261.1,165.965 261.29,166.08 Q261.48,166.195 261.595,166.405 Q261.71,166.615 261.71,166.955 Q261.71,167.295 261.595,167.505 Q261.48,167.715 261.29,167.83 Q261.1,167.945 260.85,167.985 Q260.6,168.025 260.33,168.025 z M257.54,164.665 L257.54,171.805 L259.11,171.805 L259.11,169.245 L260.76,169.245 Q261.43,169.245 261.9,169.05 Q262.37,168.855 262.665,168.535 Q262.96,168.215 263.095,167.8 Q263.23,167.385 263.23,166.955 Q263.23,166.515 263.095,166.105 Q262.96,165.695 262.665,165.375 Q262.37,165.055 261.9,164.86 Q261.43,164.665 260.76,164.665 z M265.78,167.895 L265.78,165.885 L267.5,165.885 Q268.04,165.885 268.31,166.12 Q268.58,166.355 268.58,166.875 Q268.58,167.415 268.31,167.655 Q268.04,167.895 267.5,167.895 z M264.21,164.665 L264.21,171.805 L265.78,171.805 L265.78,169.015 L267.35,169.015 Q267.94,169.015 268.2,169.275 Q268.46,169.535 268.54,170.095 Q268.6,170.525 268.63,170.995 Q268.66,171.465 268.79,171.805 L270.36,171.805 Q270.25,171.655 270.195,171.44 Q270.14,171.225 270.115,170.985 Q270.09,170.745 270.08,170.515 Q270.07,170.285 270.06,170.115 Q270.04,169.845 269.985,169.575 Q269.93,169.305 269.81,169.08 Q269.69,168.855 269.5,168.69 Q269.31,168.525 269.02,168.445 L269.02,168.425 Q269.62,168.185 269.885,167.725 Q270.15,167.265 270.15,166.635 Q270.15,166.225 270.005,165.87 Q269.86,165.515 269.585,165.245 Q269.31,164.975 268.925,164.82 Q268.54,164.665 268.06,164.665 z M271.43,164.665 L271.43,171.805 L276.85,171.805 L276.85,170.485 L273,170.485 L273,168.735 L276.46,168.735 L276.46,167.515 L273,167.515 L273,165.985 L276.77,165.985 L276.77,164.665 z M278.98,169.435 L277.46,169.435 Q277.45,170.095 277.7,170.575 Q277.95,171.055 278.375,171.365 Q278.8,171.675 279.355,171.82 Q279.91,171.965 280.5,171.965 Q281.23,171.965 281.785,171.795 Q282.34,171.625 282.715,171.32 Q283.09,171.015 283.28,170.595 Q283.47,170.175 283.47,169.685 Q283.47,169.085 283.215,168.7 Q282.96,168.315 282.61,168.085 Q282.26,167.855 281.905,167.75 Q281.55,167.645 281.35,167.605 Q280.68,167.435 280.265,167.325 Q279.85,167.215 279.615,167.105 Q279.38,166.995 279.3,166.865 Q279.22,166.735 279.22,166.525 Q279.22,166.295 279.32,166.145 Q279.42,165.995 279.575,165.895 Q279.73,165.795 279.92,165.755 Q280.11,165.715 280.3,165.715 Q280.59,165.715 280.835,165.765 Q281.08,165.815 281.27,165.935 Q281.46,166.055 281.575,166.265 Q281.69,166.475 281.71,166.795 L283.23,166.795 Q283.23,166.175 282.995,165.74 Q282.76,165.305 282.36,165.025 Q281.96,164.745 281.445,164.62 Q280.93,164.495 280.37,164.495 Q279.89,164.495 279.41,164.625 Q278.93,164.755 278.55,165.025 Q278.17,165.295 277.935,165.7 Q277.7,166.105 277.7,166.655 Q277.7,167.145 277.885,167.49 Q278.07,167.835 278.37,168.065 Q278.67,168.295 279.05,168.44 Q279.43,168.585 279.83,168.685 Q280.22,168.795 280.6,168.885 Q280.98,168.975 281.28,169.095 Q281.58,169.215 281.765,169.395 Q281.95,169.575 281.95,169.865 Q281.95,170.135 281.81,170.31 Q281.67,170.485 281.46,170.585 Q281.25,170.685 281.01,170.72 Q280.77,170.755 280.56,170.755 Q280.25,170.755 279.96,170.68 Q279.67,170.605 279.455,170.45 Q279.24,170.295 279.11,170.045 Q278.98,169.795 278.98,169.435 z M284.4,164.665 L284.4,171.805 L289.82,171.805 L289.82,170.485 L285.97,170.485 L285.97,168.735 L289.43,168.735 L289.43,167.515 L285.97,167.515 L285.97,165.985 L289.74,165.985 L289.74,164.665 z M290.88,164.665 L290.88,171.805 L292.35,171.805 L292.35,167.025 L292.37,167.025 L295.34,171.805 L296.91,171.805 L296.91,164.665 L295.44,164.665 L295.44,169.455 L295.42,169.455 L292.44,164.665 z M299.87,165.985 L299.87,171.805 L301.44,171.805 L301.44,165.985 L303.58,165.985 L303.58,164.665 L297.73,164.665 L297.73,165.985 z M305.28,169.045 L306.21,166.425 L306.23,166.425 L307.13,169.045 z M305.43,164.665 L302.73,171.805 L304.31,171.805 L304.87,170.215 L307.54,170.215 L308.08,171.805 L309.71,171.805 L307.04,164.665 z M315.09,167.065 L316.61,167.065 Q316.54,166.445 316.27,165.965 Q316,165.485 315.585,165.16 Q315.17,164.835 314.645,164.665 Q314.12,164.495 313.53,164.495 Q312.71,164.495 312.055,164.785 Q311.4,165.075 310.95,165.585 Q310.5,166.095 310.26,166.78 Q310.02,167.465 310.02,168.265 Q310.02,169.045 310.26,169.72 Q310.5,170.395 310.95,170.895 Q311.4,171.395 312.055,171.68 Q312.71,171.965 313.53,171.965 Q314.19,171.965 314.74,171.765 Q315.29,171.565 315.7,171.185 Q316.11,170.805 316.36,170.265 Q316.61,169.725 316.67,169.055 L315.15,169.055 Q315.06,169.775 314.655,170.215 Q314.25,170.655 313.53,170.655 Q313,170.655 312.63,170.45 Q312.26,170.245 312.03,169.905 Q311.8,169.565 311.695,169.14 Q311.59,168.715 311.59,168.265 Q311.59,167.795 311.695,167.355 Q311.8,166.915 312.03,166.57 Q312.26,166.225 312.63,166.02 Q313,165.815 313.53,165.815 Q313.82,165.815 314.085,165.91 Q314.35,166.005 314.56,166.175 Q314.77,166.345 314.91,166.57 Q315.05,166.795 315.09,167.065 z M317.74,164.665 L317.74,171.805 L319.31,171.805 L319.31,164.665 z M324.13,164.025 L325.67,162.605 L324.1,162.605 L323.14,164.025 z M321.95,168.265 Q321.95,167.795 322.055,167.355 Q322.16,166.915 322.39,166.57 Q322.62,166.225 322.99,166.02 Q323.36,165.815 323.89,165.815 Q324.42,165.815 324.79,166.02 Q325.16,166.225 325.39,166.57 Q325.62,166.915 325.725,167.355 Q325.83,167.795 325.83,168.265 Q325.83,168.715 325.725,169.14 Q325.62,169.565 325.39,169.905 Q325.16,170.245 324.79,170.45 Q324.42,170.655 323.89,170.655 Q323.36,170.655 322.99,170.45 Q322.62,170.245 322.39,169.905 Q322.16,169.565 322.055,169.14 Q321.95,168.715 321.95,168.265 z M320.38,168.265 Q320.38,169.045 320.62,169.72 Q320.86,170.395 321.31,170.895 Q321.76,171.395 322.415,171.68 Q323.07,171.965 323.89,171.965 Q324.72,171.965 325.37,171.68 Q326.02,171.395 326.47,170.895 Q326.92,170.395 327.16,169.72 Q327.4,169.045 327.4,168.265 Q327.4,167.465 327.16,166.78 Q326.92,166.095 326.47,165.585 Q326.02,165.075 325.37,164.785 Q324.72,164.495 323.89,164.495 Q323.07,164.495 322.415,164.785 Q321.76,165.075 321.31,165.585 Q320.86,166.095 320.62,166.78 Q320.38,167.465 320.38,168.265 z M328.47,164.665 L328.47,171.805 L329.94,171.805 L329.94,167.025 L329.96,167.025 L332.93,171.805 L334.5,171.805 L334.5,164.665 L333.03,164.665 L333.03,169.455 L333.01,169.455 L330.03,164.665 z" fill="#FFFFFF"/>
    </g>
    <g>
      <text transform="matrix(1, 0, 0, 1, 199.795, 168.305)">
        <tspan x="-39.67" y="3.5" font-family="HelveticaNeue-Bold" font-size="10" fill="#FFFFFF">PRESENTACIÓN</tspan>
      </text>
      <path d="M162.385,168.025 L162.385,165.885 L163.605,165.885 Q163.875,165.885 164.125,165.925 Q164.375,165.965 164.565,166.08 Q164.755,166.195 164.87,166.405 Q164.985,166.615 164.985,166.955 Q164.985,167.295 164.87,167.505 Q164.755,167.715 164.565,167.83 Q164.375,167.945 164.125,167.985 Q163.875,168.025 163.605,168.025 z M160.815,164.665 L160.815,171.805 L162.385,171.805 L162.385,169.245 L164.035,169.245 Q164.705,169.245 165.175,169.05 Q165.645,168.855 165.94,168.535 Q166.235,168.215 166.37,167.8 Q166.505,167.385 166.505,166.955 Q166.505,166.515 166.37,166.105 Q166.235,165.695 165.94,165.375 Q165.645,165.055 165.175,164.86 Q164.705,164.665 164.035,164.665 z M169.055,167.895 L169.055,165.885 L170.775,165.885 Q171.315,165.885 171.585,166.12 Q171.855,166.355 171.855,166.875 Q171.855,167.415 171.585,167.655 Q171.315,167.895 170.775,167.895 z M167.485,164.665 L167.485,171.805 L169.055,171.805 L169.055,169.015 L170.625,169.015 Q171.215,169.015 171.475,169.275 Q171.735,169.535 171.815,170.095 Q171.875,170.525 171.905,170.995 Q171.935,171.465 172.065,171.805 L173.635,171.805 Q173.525,171.655 173.47,171.44 Q173.415,171.225 173.39,170.985 Q173.365,170.745 173.355,170.515 Q173.345,170.285 173.335,170.115 Q173.315,169.845 173.26,169.575 Q173.205,169.305 173.085,169.08 Q172.965,168.855 172.775,168.69 Q172.585,168.525 172.295,168.445 L172.295,168.425 Q172.895,168.185 173.16,167.725 Q173.425,167.265 173.425,166.635 Q173.425,166.225 173.28,165.87 Q173.135,165.515 172.86,165.245 Q172.585,164.975 172.2,164.82 Q171.815,164.665 171.335,164.665 z M174.705,164.665 L174.705,171.805 L180.125,171.805 L180.125,170.485 L176.275,170.485 L176.275,168.735 L179.735,168.735 L179.735,167.515 L176.275,167.515 L176.275,165.985 L180.045,165.985 L180.045,164.665 z M182.255,169.435 L180.735,169.435 Q180.725,170.095 180.975,170.575 Q181.225,171.055 181.65,171.365 Q182.075,171.675 182.63,171.82 Q183.185,171.965 183.775,171.965 Q184.505,171.965 185.06,171.795 Q185.615,171.625 185.99,171.32 Q186.365,171.015 186.555,170.595 Q186.745,170.175 186.745,169.685 Q186.745,169.085 186.49,168.7 Q186.235,168.315 185.885,168.085 Q185.535,167.855 185.18,167.75 Q184.825,167.645 184.625,167.605 Q183.955,167.435 183.54,167.325 Q183.125,167.215 182.89,167.105 Q182.655,166.995 182.575,166.865 Q182.495,166.735 182.495,166.525 Q182.495,166.295 182.595,166.145 Q182.695,165.995 182.85,165.895 Q183.005,165.795 183.195,165.755 Q183.385,165.715 183.575,165.715 Q183.865,165.715 184.11,165.765 Q184.355,165.815 184.545,165.935 Q184.735,166.055 184.85,166.265 Q184.965,166.475 184.985,166.795 L186.505,166.795 Q186.505,166.175 186.27,165.74 Q186.035,165.305 185.635,165.025 Q185.235,164.745 184.72,164.62 Q184.205,164.495 183.645,164.495 Q183.165,164.495 182.685,164.625 Q182.205,164.755 181.825,165.025 Q181.445,165.295 181.21,165.7 Q180.975,166.105 180.975,166.655 Q180.975,167.145 181.16,167.49 Q181.345,167.835 181.645,168.065 Q181.945,168.295 182.325,168.44 Q182.705,168.585 183.105,168.685 Q183.495,168.795 183.875,168.885 Q184.255,168.975 184.555,169.095 Q184.855,169.215 185.04,169.395 Q185.225,169.575 185.225,169.865 Q185.225,170.135 185.085,170.31 Q184.945,170.485 184.735,170.585 Q184.525,170.685 184.285,170.72 Q184.045,170.755 183.835,170.755 Q183.525,170.755 183.235,170.68 Q182.945,170.605 182.73,170.45 Q182.515,170.295 182.385,170.045 Q182.255,169.795 182.255,169.435 z M187.675,164.665 L187.675,171.805 L193.095,171.805 L193.095,170.485 L189.245,170.485 L189.245,168.735 L192.705,168.735 L192.705,167.515 L189.245,167.515 L189.245,165.985 L193.015,165.985 L193.015,164.665 z M194.155,164.665 L194.155,171.805 L195.625,171.805 L195.625,167.025 L195.645,167.025 L198.615,171.805 L200.185,171.805 L200.185,164.665 L198.715,164.665 L198.715,169.455 L198.695,169.455 L195.715,164.665 z M203.145,165.985 L203.145,171.805 L204.715,171.805 L204.715,165.985 L206.855,165.985 L206.855,164.665 L201.005,164.665 L201.005,165.985 z M208.555,169.045 L209.485,166.425 L209.505,166.425 L210.405,169.045 z M208.705,164.665 L206.005,171.805 L207.585,171.805 L208.145,170.215 L210.815,170.215 L211.355,171.805 L212.985,171.805 L210.315,164.665 z M218.365,167.065 L219.885,167.065 Q219.815,166.445 219.545,165.965 Q219.275,165.485 218.86,165.16 Q218.445,164.835 217.92,164.665 Q217.395,164.495 216.805,164.495 Q215.985,164.495 215.33,164.785 Q214.675,165.075 214.225,165.585 Q213.775,166.095 213.535,166.78 Q213.295,167.465 213.295,168.265 Q213.295,169.045 213.535,169.72 Q213.775,170.395 214.225,170.895 Q214.675,171.395 215.33,171.68 Q215.985,171.965 216.805,171.965 Q217.465,171.965 218.015,171.765 Q218.565,171.565 218.975,171.185 Q219.385,170.805 219.635,170.265 Q219.885,169.725 219.945,169.055 L218.425,169.055 Q218.335,169.775 217.93,170.215 Q217.525,170.655 216.805,170.655 Q216.275,170.655 215.905,170.45 Q215.535,170.245 215.305,169.905 Q215.075,169.565 214.97,169.14 Q214.865,168.715 214.865,168.265 Q214.865,167.795 214.97,167.355 Q215.075,166.915 215.305,166.57 Q215.535,166.225 215.905,166.02 Q216.275,165.815 216.805,165.815 Q217.095,165.815 217.36,165.91 Q217.625,166.005 217.835,166.175 Q218.045,166.345 218.185,166.57 Q218.325,166.795 218.365,167.065 z M221.015,164.665 L221.015,171.805 L222.585,171.805 L222.585,164.665 z M227.405,164.025 L228.945,162.605 L227.375,162.605 L226.415,164.025 z M225.225,168.265 Q225.225,167.795 225.33,167.355 Q225.435,166.915 225.665,166.57 Q225.895,166.225 226.265,166.02 Q226.635,165.815 227.165,165.815 Q227.695,165.815 228.065,166.02 Q228.435,166.225 228.665,166.57 Q228.895,166.915 229,167.355 Q229.105,167.795 229.105,168.265 Q229.105,168.715 229,169.14 Q228.895,169.565 228.665,169.905 Q228.435,170.245 228.065,170.45 Q227.695,170.655 227.165,170.655 Q226.635,170.655 226.265,170.45 Q225.895,170.245 225.665,169.905 Q225.435,169.565 225.33,169.14 Q225.225,168.715 225.225,168.265 z M223.655,168.265 Q223.655,169.045 223.895,169.72 Q224.135,170.395 224.585,170.895 Q225.035,171.395 225.69,171.68 Q226.345,171.965 227.165,171.965 Q227.995,171.965 228.645,171.68 Q229.295,171.395 229.745,170.895 Q230.195,170.395 230.435,169.72 Q230.675,169.045 230.675,168.265 Q230.675,167.465 230.435,166.78 Q230.195,166.095 229.745,165.585 Q229.295,165.075 228.645,164.785 Q227.995,164.495 227.165,164.495 Q226.345,164.495 225.69,164.785 Q225.035,165.075 224.585,165.585 Q224.135,166.095 223.895,166.78 Q223.655,167.465 223.655,168.265 z M231.745,164.665 L231.745,171.805 L233.215,171.805 L233.215,167.025 L233.235,167.025 L236.205,171.805 L237.775,171.805 L237.775,164.665 L236.305,164.665 L236.305,169.455 L236.285,169.455 L233.305,164.665 z" fill="#FFFFFF"/>
    </g>
    <g>
      <text transform="matrix(1, 0, 0, 1, 102.409, 168.305)">
        <tspan x="-39.67" y="3.5" font-family="HelveticaNeue-Bold" font-size="10" fill="#FFFFFF">PRESENTACIÓN</tspan>
      </text>
      <path d="M64.999,168.025 L64.999,165.885 L66.219,165.885 Q66.489,165.885 66.739,165.925 Q66.989,165.965 67.179,166.08 Q67.369,166.195 67.484,166.405 Q67.599,166.615 67.599,166.955 Q67.599,167.295 67.484,167.505 Q67.369,167.715 67.179,167.83 Q66.989,167.945 66.739,167.985 Q66.489,168.025 66.219,168.025 z M63.429,164.665 L63.429,171.805 L64.999,171.805 L64.999,169.245 L66.649,169.245 Q67.319,169.245 67.789,169.05 Q68.259,168.855 68.554,168.535 Q68.849,168.215 68.984,167.8 Q69.119,167.385 69.119,166.955 Q69.119,166.515 68.984,166.105 Q68.849,165.695 68.554,165.375 Q68.259,165.055 67.789,164.86 Q67.319,164.665 66.649,164.665 z M71.669,167.895 L71.669,165.885 L73.389,165.885 Q73.929,165.885 74.199,166.12 Q74.469,166.355 74.469,166.875 Q74.469,167.415 74.199,167.655 Q73.929,167.895 73.389,167.895 z M70.099,164.665 L70.099,171.805 L71.669,171.805 L71.669,169.015 L73.239,169.015 Q73.829,169.015 74.089,169.275 Q74.349,169.535 74.429,170.095 Q74.489,170.525 74.519,170.995 Q74.549,171.465 74.679,171.805 L76.249,171.805 Q76.139,171.655 76.084,171.44 Q76.029,171.225 76.004,170.985 Q75.979,170.745 75.969,170.515 Q75.959,170.285 75.949,170.115 Q75.929,169.845 75.874,169.575 Q75.819,169.305 75.699,169.08 Q75.579,168.855 75.389,168.69 Q75.199,168.525 74.909,168.445 L74.909,168.425 Q75.509,168.185 75.774,167.725 Q76.039,167.265 76.039,166.635 Q76.039,166.225 75.894,165.87 Q75.749,165.515 75.474,165.245 Q75.199,164.975 74.814,164.82 Q74.429,164.665 73.949,164.665 z M77.319,164.665 L77.319,171.805 L82.739,171.805 L82.739,170.485 L78.889,170.485 L78.889,168.735 L82.349,168.735 L82.349,167.515 L78.889,167.515 L78.889,165.985 L82.659,165.985 L82.659,164.665 z M84.869,169.435 L83.349,169.435 Q83.339,170.095 83.589,170.575 Q83.839,171.055 84.264,171.365 Q84.689,171.675 85.244,171.82 Q85.799,171.965 86.389,171.965 Q87.119,171.965 87.674,171.795 Q88.229,171.625 88.604,171.32 Q88.979,171.015 89.169,170.595 Q89.359,170.175 89.359,169.685 Q89.359,169.085 89.104,168.7 Q88.849,168.315 88.499,168.085 Q88.149,167.855 87.794,167.75 Q87.439,167.645 87.239,167.605 Q86.569,167.435 86.154,167.325 Q85.739,167.215 85.504,167.105 Q85.269,166.995 85.189,166.865 Q85.109,166.735 85.109,166.525 Q85.109,166.295 85.209,166.145 Q85.309,165.995 85.464,165.895 Q85.619,165.795 85.809,165.755 Q85.999,165.715 86.189,165.715 Q86.479,165.715 86.724,165.765 Q86.969,165.815 87.159,165.935 Q87.349,166.055 87.464,166.265 Q87.579,166.475 87.599,166.795 L89.119,166.795 Q89.119,166.175 88.884,165.74 Q88.649,165.305 88.249,165.025 Q87.849,164.745 87.334,164.62 Q86.819,164.495 86.259,164.495 Q85.779,164.495 85.299,164.625 Q84.819,164.755 84.439,165.025 Q84.059,165.295 83.824,165.7 Q83.589,166.105 83.589,166.655 Q83.589,167.145 83.774,167.49 Q83.959,167.835 84.259,168.065 Q84.559,168.295 84.939,168.44 Q85.319,168.585 85.719,168.685 Q86.109,168.795 86.489,168.885 Q86.869,168.975 87.169,169.095 Q87.469,169.215 87.654,169.395 Q87.839,169.575 87.839,169.865 Q87.839,170.135 87.699,170.31 Q87.559,170.485 87.349,170.585 Q87.139,170.685 86.899,170.72 Q86.659,170.755 86.449,170.755 Q86.139,170.755 85.849,170.68 Q85.559,170.605 85.344,170.45 Q85.129,170.295 84.999,170.045 Q84.869,169.795 84.869,169.435 z M90.289,164.665 L90.289,171.805 L95.709,171.805 L95.709,170.485 L91.859,170.485 L91.859,168.735 L95.319,168.735 L95.319,167.515 L91.859,167.515 L91.859,165.985 L95.629,165.985 L95.629,164.665 z M96.769,164.665 L96.769,171.805 L98.239,171.805 L98.239,167.025 L98.259,167.025 L101.229,171.805 L102.799,171.805 L102.799,164.665 L101.329,164.665 L101.329,169.455 L101.309,169.455 L98.329,164.665 z M105.759,165.985 L105.759,171.805 L107.329,171.805 L107.329,165.985 L109.469,165.985 L109.469,164.665 L103.619,164.665 L103.619,165.985 z M111.169,169.045 L112.099,166.425 L112.119,166.425 L113.019,169.045 z M111.319,164.665 L108.619,171.805 L110.199,171.805 L110.759,170.215 L113.429,170.215 L113.969,171.805 L115.599,171.805 L112.929,164.665 z M120.979,167.065 L122.499,167.065 Q122.429,166.445 122.159,165.965 Q121.889,165.485 121.474,165.16 Q121.059,164.835 120.534,164.665 Q120.009,164.495 119.419,164.495 Q118.599,164.495 117.944,164.785 Q117.289,165.075 116.839,165.585 Q116.389,166.095 116.149,166.78 Q115.909,167.465 115.909,168.265 Q115.909,169.045 116.149,169.72 Q116.389,170.395 116.839,170.895 Q117.289,171.395 117.944,171.68 Q118.599,171.965 119.419,171.965 Q120.079,171.965 120.629,171.765 Q121.179,171.565 121.589,171.185 Q121.999,170.805 122.249,170.265 Q122.499,169.725 122.559,169.055 L121.039,169.055 Q120.949,169.775 120.544,170.215 Q120.139,170.655 119.419,170.655 Q118.889,170.655 118.519,170.45 Q118.149,170.245 117.919,169.905 Q117.689,169.565 117.584,169.14 Q117.479,168.715 117.479,168.265 Q117.479,167.795 117.584,167.355 Q117.689,166.915 117.919,166.57 Q118.149,166.225 118.519,166.02 Q118.889,165.815 119.419,165.815 Q119.709,165.815 119.974,165.91 Q120.239,166.005 120.449,166.175 Q120.659,166.345 120.799,166.57 Q120.939,166.795 120.979,167.065 z M123.629,164.665 L123.629,171.805 L125.199,171.805 L125.199,164.665 z M130.019,164.025 L131.559,162.605 L129.989,162.605 L129.029,164.025 z M127.839,168.265 Q127.839,167.795 127.944,167.355 Q128.049,166.915 128.279,166.57 Q128.509,166.225 128.879,166.02 Q129.249,165.815 129.779,165.815 Q130.309,165.815 130.679,166.02 Q131.049,166.225 131.279,166.57 Q131.509,166.915 131.614,167.355 Q131.719,167.795 131.719,168.265 Q131.719,168.715 131.614,169.14 Q131.509,169.565 131.279,169.905 Q131.049,170.245 130.679,170.45 Q130.309,170.655 129.779,170.655 Q129.249,170.655 128.879,170.45 Q128.509,170.245 128.279,169.905 Q128.049,169.565 127.944,169.14 Q127.839,168.715 127.839,168.265 z M126.269,168.265 Q126.269,169.045 126.509,169.72 Q126.749,170.395 127.199,170.895 Q127.649,171.395 128.304,171.68 Q128.959,171.965 129.779,171.965 Q130.609,171.965 131.259,171.68 Q131.909,171.395 132.359,170.895 Q132.809,170.395 133.049,169.72 Q133.289,169.045 133.289,168.265 Q133.289,167.465 133.049,166.78 Q132.809,166.095 132.359,165.585 Q131.909,165.075 131.259,164.785 Q130.609,164.495 129.779,164.495 Q128.959,164.495 128.304,164.785 Q127.649,165.075 127.199,165.585 Q126.749,166.095 126.509,166.78 Q126.269,167.465 126.269,168.265 z M134.359,164.665 L134.359,171.805 L135.829,171.805 L135.829,167.025 L135.849,167.025 L138.819,171.805 L140.389,171.805 L140.389,164.665 L138.919,164.665 L138.919,169.455 L138.899,169.455 L135.919,164.665 z" fill="#FFFFFF"/>
    </g>
    <g>
      <text transform="matrix(1, 0, 0, 1, 198.876, 212.685)">
        <tspan x="-56.425" y="3.5" font-family="HelveticaNeue-Bold" font-size="10" fill="#FFFFFF">LÓGICA DE NEGOCIOS</tspan>
      </text>
      <path d="M143.141,209.045 L143.141,216.185 L148.191,216.185 L148.191,214.865 L144.711,214.865 L144.711,209.045 z M152.511,208.405 L154.051,206.985 L152.481,206.985 L151.521,208.405 z M150.331,212.645 Q150.331,212.175 150.436,211.735 Q150.541,211.295 150.771,210.95 Q151.001,210.605 151.371,210.4 Q151.741,210.195 152.271,210.195 Q152.801,210.195 153.171,210.4 Q153.541,210.605 153.771,210.95 Q154.001,211.295 154.106,211.735 Q154.211,212.175 154.211,212.645 Q154.211,213.095 154.106,213.52 Q154.001,213.945 153.771,214.285 Q153.541,214.625 153.171,214.83 Q152.801,215.035 152.271,215.035 Q151.741,215.035 151.371,214.83 Q151.001,214.625 150.771,214.285 Q150.541,213.945 150.436,213.52 Q150.331,213.095 150.331,212.645 z M148.761,212.645 Q148.761,213.425 149.001,214.1 Q149.241,214.775 149.691,215.275 Q150.141,215.775 150.796,216.06 Q151.451,216.345 152.271,216.345 Q153.101,216.345 153.751,216.06 Q154.401,215.775 154.851,215.275 Q155.301,214.775 155.541,214.1 Q155.781,213.425 155.781,212.645 Q155.781,211.845 155.541,211.16 Q155.301,210.475 154.851,209.965 Q154.401,209.455 153.751,209.165 Q153.101,208.875 152.271,208.875 Q151.451,208.875 150.796,209.165 Q150.141,209.455 149.691,209.965 Q149.241,210.475 149.001,211.16 Q148.761,211.845 148.761,212.645 z M162.011,215.375 L162.171,216.185 L163.171,216.185 L163.171,212.325 L160.171,212.325 L160.171,213.495 L161.751,213.495 Q161.681,214.245 161.256,214.64 Q160.831,215.035 160.051,215.035 Q159.521,215.035 159.151,214.83 Q158.781,214.625 158.551,214.285 Q158.321,213.945 158.216,213.52 Q158.111,213.095 158.111,212.645 Q158.111,212.175 158.216,211.735 Q158.321,211.295 158.551,210.95 Q158.781,210.605 159.151,210.4 Q159.521,210.195 160.051,210.195 Q160.621,210.195 161.021,210.495 Q161.421,210.795 161.561,211.395 L163.061,211.395 Q163.001,210.785 162.731,210.315 Q162.461,209.845 162.046,209.525 Q161.631,209.205 161.116,209.04 Q160.601,208.875 160.051,208.875 Q159.231,208.875 158.576,209.165 Q157.921,209.455 157.471,209.965 Q157.021,210.475 156.781,211.16 Q156.541,211.845 156.541,212.645 Q156.541,213.425 156.781,214.1 Q157.021,214.775 157.471,215.275 Q157.921,215.775 158.576,216.06 Q159.231,216.345 160.051,216.345 Q160.571,216.345 161.081,216.13 Q161.591,215.915 162.011,215.375 z M164.441,209.045 L164.441,216.185 L166.011,216.185 L166.011,209.045 z M172.151,211.445 L173.671,211.445 Q173.601,210.825 173.331,210.345 Q173.061,209.865 172.646,209.54 Q172.231,209.215 171.706,209.045 Q171.181,208.875 170.591,208.875 Q169.771,208.875 169.116,209.165 Q168.461,209.455 168.011,209.965 Q167.561,210.475 167.321,211.16 Q167.081,211.845 167.081,212.645 Q167.081,213.425 167.321,214.1 Q167.561,214.775 168.011,215.275 Q168.461,215.775 169.116,216.06 Q169.771,216.345 170.591,216.345 Q171.251,216.345 171.801,216.145 Q172.351,215.945 172.761,215.565 Q173.171,215.185 173.421,214.645 Q173.671,214.105 173.731,213.435 L172.211,213.435 Q172.121,214.155 171.716,214.595 Q171.311,215.035 170.591,215.035 Q170.061,215.035 169.691,214.83 Q169.321,214.625 169.091,214.285 Q168.861,213.945 168.756,213.52 Q168.651,213.095 168.651,212.645 Q168.651,212.175 168.756,211.735 Q168.861,211.295 169.091,210.95 Q169.321,210.605 169.691,210.4 Q170.061,210.195 170.591,210.195 Q170.881,210.195 171.146,210.29 Q171.411,210.385 171.621,210.555 Q171.831,210.725 171.971,210.95 Q172.111,211.175 172.151,211.445 z M176.601,213.425 L177.531,210.805 L177.551,210.805 L178.451,213.425 z M176.751,209.045 L174.051,216.185 L175.631,216.185 L176.191,214.595 L178.861,214.595 L179.401,216.185 L181.031,216.185 L178.361,209.045 z M186.001,214.865 L186.001,210.365 L187.121,210.365 Q187.701,210.365 188.096,210.53 Q188.491,210.695 188.731,211.005 Q188.971,211.315 189.076,211.75 Q189.181,212.185 189.181,212.725 Q189.181,213.315 189.031,213.725 Q188.881,214.135 188.631,214.39 Q188.381,214.645 188.061,214.755 Q187.741,214.865 187.401,214.865 z M184.431,209.045 L184.431,216.185 L187.511,216.185 Q188.331,216.185 188.936,215.91 Q189.541,215.635 189.946,215.155 Q190.351,214.675 190.551,214.015 Q190.751,213.355 190.751,212.575 Q190.751,211.685 190.506,211.025 Q190.261,210.365 189.826,209.925 Q189.391,209.485 188.796,209.265 Q188.201,209.045 187.511,209.045 z M191.841,209.045 L191.841,216.185 L197.261,216.185 L197.261,214.865 L193.411,214.865 L193.411,213.115 L196.871,213.115 L196.871,211.895 L193.411,211.895 L193.411,210.365 L197.181,210.365 L197.181,209.045 z M201.101,209.045 L201.101,216.185 L202.571,216.185 L202.571,211.405 L202.591,211.405 L205.561,216.185 L207.131,216.185 L207.131,209.045 L205.661,209.045 L205.661,213.835 L205.641,213.835 L202.661,209.045 z M208.511,209.045 L208.511,216.185 L213.931,216.185 L213.931,214.865 L210.081,214.865 L210.081,213.115 L213.541,213.115 L213.541,211.895 L210.081,211.895 L210.081,210.365 L213.851,210.365 L213.851,209.045 z M220.151,215.375 L220.311,216.185 L221.311,216.185 L221.311,212.325 L218.311,212.325 L218.311,213.495 L219.891,213.495 Q219.821,214.245 219.396,214.64 Q218.971,215.035 218.191,215.035 Q217.661,215.035 217.291,214.83 Q216.921,214.625 216.691,214.285 Q216.461,213.945 216.356,213.52 Q216.251,213.095 216.251,212.645 Q216.251,212.175 216.356,211.735 Q216.461,211.295 216.691,210.95 Q216.921,210.605 217.291,210.4 Q217.661,210.195 218.191,210.195 Q218.761,210.195 219.161,210.495 Q219.561,210.795 219.701,211.395 L221.201,211.395 Q221.141,210.785 220.871,210.315 Q220.601,209.845 220.186,209.525 Q219.771,209.205 219.256,209.04 Q218.741,208.875 218.191,208.875 Q217.371,208.875 216.716,209.165 Q216.061,209.455 215.611,209.965 Q215.161,210.475 214.921,211.16 Q214.681,211.845 214.681,212.645 Q214.681,213.425 214.921,214.1 Q215.161,214.775 215.611,215.275 Q216.061,215.775 216.716,216.06 Q217.371,216.345 218.191,216.345 Q218.711,216.345 219.221,216.13 Q219.731,215.915 220.151,215.375 z M223.841,212.645 Q223.841,212.175 223.946,211.735 Q224.051,211.295 224.281,210.95 Q224.511,210.605 224.881,210.4 Q225.251,210.195 225.781,210.195 Q226.311,210.195 226.681,210.4 Q227.051,210.605 227.281,210.95 Q227.511,211.295 227.616,211.735 Q227.721,212.175 227.721,212.645 Q227.721,213.095 227.616,213.52 Q227.511,213.945 227.281,214.285 Q227.051,214.625 226.681,214.83 Q226.311,215.035 225.781,215.035 Q225.251,215.035 224.881,214.83 Q224.511,214.625 224.281,214.285 Q224.051,213.945 223.946,213.52 Q223.841,213.095 223.841,212.645 z M222.271,212.645 Q222.271,213.425 222.511,214.1 Q222.751,214.775 223.201,215.275 Q223.651,215.775 224.306,216.06 Q224.961,216.345 225.781,216.345 Q226.611,216.345 227.261,216.06 Q227.911,215.775 228.361,215.275 Q228.811,214.775 229.051,214.1 Q229.291,213.425 229.291,212.645 Q229.291,211.845 229.051,211.16 Q228.811,210.475 228.361,209.965 Q227.911,209.455 227.261,209.165 Q226.611,208.875 225.781,208.875 Q224.961,208.875 224.306,209.165 Q223.651,209.455 223.201,209.965 Q222.751,210.475 222.511,211.16 Q222.271,211.845 222.271,212.645 z M235.121,211.445 L236.641,211.445 Q236.571,210.825 236.301,210.345 Q236.031,209.865 235.616,209.54 Q235.201,209.215 234.676,209.045 Q234.151,208.875 233.561,208.875 Q232.741,208.875 232.086,209.165 Q231.431,209.455 230.981,209.965 Q230.531,210.475 230.291,211.16 Q230.051,211.845 230.051,212.645 Q230.051,213.425 230.291,214.1 Q230.531,214.775 230.981,215.275 Q231.431,215.775 232.086,216.06 Q232.741,216.345 233.561,216.345 Q234.221,216.345 234.771,216.145 Q235.321,215.945 235.731,215.565 Q236.141,215.185 236.391,214.645 Q236.641,214.105 236.701,213.435 L235.181,213.435 Q235.091,214.155 234.686,214.595 Q234.281,215.035 233.561,215.035 Q233.031,215.035 232.661,214.83 Q232.291,214.625 232.061,214.285 Q231.831,213.945 231.726,213.52 Q231.621,213.095 231.621,212.645 Q231.621,212.175 231.726,211.735 Q231.831,211.295 232.061,210.95 Q232.291,210.605 232.661,210.4 Q233.031,210.195 233.561,210.195 Q233.851,210.195 234.116,210.29 Q234.381,210.385 234.591,210.555 Q234.801,210.725 234.941,210.95 Q235.081,211.175 235.121,211.445 z M237.771,209.045 L237.771,216.185 L239.341,216.185 L239.341,209.045 z M241.981,212.645 Q241.981,212.175 242.086,211.735 Q242.191,211.295 242.421,210.95 Q242.651,210.605 243.021,210.4 Q243.391,210.195 243.921,210.195 Q244.451,210.195 244.821,210.4 Q245.191,210.605 245.421,210.95 Q245.651,211.295 245.756,211.735 Q245.861,212.175 245.861,212.645 Q245.861,213.095 245.756,213.52 Q245.651,213.945 245.421,214.285 Q245.191,214.625 244.821,214.83 Q244.451,215.035 243.921,215.035 Q243.391,215.035 243.021,214.83 Q242.651,214.625 242.421,214.285 Q242.191,213.945 242.086,213.52 Q241.981,213.095 241.981,212.645 z M240.411,212.645 Q240.411,213.425 240.651,214.1 Q240.891,214.775 241.341,215.275 Q241.791,215.775 242.446,216.06 Q243.101,216.345 243.921,216.345 Q244.751,216.345 245.401,216.06 Q246.051,215.775 246.501,215.275 Q246.951,214.775 247.191,214.1 Q247.431,213.425 247.431,212.645 Q247.431,211.845 247.191,211.16 Q246.951,210.475 246.501,209.965 Q246.051,209.455 245.401,209.165 Q244.751,208.875 243.921,208.875 Q243.101,208.875 242.446,209.165 Q241.791,209.455 241.341,209.965 Q240.891,210.475 240.651,211.16 Q240.411,211.845 240.411,212.645 z M249.571,213.815 L248.051,213.815 Q248.041,214.475 248.291,214.955 Q248.541,215.435 248.966,215.745 Q249.391,216.055 249.946,216.2 Q250.501,216.345 251.091,216.345 Q251.821,216.345 252.376,216.175 Q252.931,216.005 253.306,215.7 Q253.681,215.395 253.871,214.975 Q254.061,214.555 254.061,214.065 Q254.061,213.465 253.806,213.08 Q253.551,212.695 253.201,212.465 Q252.851,212.235 252.496,212.13 Q252.141,212.025 251.941,211.985 Q251.271,211.815 250.856,211.705 Q250.441,211.595 250.206,211.485 Q249.971,211.375 249.891,211.245 Q249.811,211.115 249.811,210.905 Q249.811,210.675 249.911,210.525 Q250.011,210.375 250.166,210.275 Q250.321,210.175 250.511,210.135 Q250.701,210.095 250.891,210.095 Q251.181,210.095 251.426,210.145 Q251.671,210.195 251.861,210.315 Q252.051,210.435 252.166,210.645 Q252.281,210.855 252.301,211.175 L253.821,211.175 Q253.821,210.555 253.586,210.12 Q253.351,209.685 252.951,209.405 Q252.551,209.125 252.036,209 Q251.521,208.875 250.961,208.875 Q250.481,208.875 250.001,209.005 Q249.521,209.135 249.141,209.405 Q248.761,209.675 248.526,210.08 Q248.291,210.485 248.291,211.035 Q248.291,211.525 248.476,211.87 Q248.661,212.215 248.961,212.445 Q249.261,212.675 249.641,212.82 Q250.021,212.965 250.421,213.065 Q250.811,213.175 251.191,213.265 Q251.571,213.355 251.871,213.475 Q252.171,213.595 252.356,213.775 Q252.541,213.955 252.541,214.245 Q252.541,214.515 252.401,214.69 Q252.261,214.865 252.051,214.965 Q251.841,215.065 251.601,215.1 Q251.361,215.135 251.151,215.135 Q250.841,215.135 250.551,215.06 Q250.261,214.985 250.046,214.83 Q249.831,214.675 249.701,214.425 Q249.571,214.175 249.571,213.815 z" fill="#FFFFFF"/>
    </g>
    <g>
      <text transform="matrix(1, 0, 0, 1, 194.296, 251.448)">
        <tspan x="-17.36" y="3.5" font-family="HelveticaNeue-Bold" font-size="10" fill="#FFFFFF">DATOS</tspan>
      </text>
      <path d="M179.196,253.628 L179.196,249.128 L180.316,249.128 Q180.896,249.128 181.291,249.293 Q181.686,249.458 181.926,249.768 Q182.166,250.078 182.271,250.513 Q182.376,250.948 182.376,251.488 Q182.376,252.078 182.226,252.488 Q182.076,252.898 181.826,253.153 Q181.576,253.408 181.256,253.518 Q180.936,253.628 180.596,253.628 z M177.626,247.808 L177.626,254.948 L180.706,254.948 Q181.526,254.948 182.131,254.673 Q182.736,254.398 183.141,253.918 Q183.546,253.438 183.746,252.778 Q183.946,252.118 183.946,251.338 Q183.946,250.448 183.701,249.788 Q183.456,249.128 183.021,248.688 Q182.586,248.248 181.991,248.028 Q181.396,247.808 180.706,247.808 z M186.836,252.188 L187.766,249.568 L187.786,249.568 L188.686,252.188 z M186.986,247.808 L184.286,254.948 L185.866,254.948 L186.426,253.358 L189.096,253.358 L189.636,254.948 L191.266,254.948 L188.596,247.808 z M192.546,249.128 L192.546,254.948 L194.116,254.948 L194.116,249.128 L196.256,249.128 L196.256,247.808 L190.406,247.808 L190.406,249.128 z M198.336,251.408 Q198.336,250.938 198.441,250.498 Q198.546,250.058 198.776,249.713 Q199.006,249.368 199.376,249.163 Q199.746,248.958 200.276,248.958 Q200.806,248.958 201.176,249.163 Q201.546,249.368 201.776,249.713 Q202.006,250.058 202.111,250.498 Q202.216,250.938 202.216,251.408 Q202.216,251.858 202.111,252.283 Q202.006,252.708 201.776,253.048 Q201.546,253.388 201.176,253.593 Q200.806,253.798 200.276,253.798 Q199.746,253.798 199.376,253.593 Q199.006,253.388 198.776,253.048 Q198.546,252.708 198.441,252.283 Q198.336,251.858 198.336,251.408 z M196.766,251.408 Q196.766,252.188 197.006,252.863 Q197.246,253.538 197.696,254.038 Q198.146,254.538 198.801,254.823 Q199.456,255.108 200.276,255.108 Q201.106,255.108 201.756,254.823 Q202.406,254.538 202.856,254.038 Q203.306,253.538 203.546,252.863 Q203.786,252.188 203.786,251.408 Q203.786,250.608 203.546,249.923 Q203.306,249.238 202.856,248.728 Q202.406,248.218 201.756,247.928 Q201.106,247.638 200.276,247.638 Q199.456,247.638 198.801,247.928 Q198.146,248.218 197.696,248.728 Q197.246,249.238 197.006,249.923 Q196.766,250.608 196.766,251.408 z M205.926,252.578 L204.406,252.578 Q204.396,253.238 204.646,253.718 Q204.896,254.198 205.321,254.508 Q205.746,254.818 206.301,254.963 Q206.856,255.108 207.446,255.108 Q208.176,255.108 208.731,254.938 Q209.286,254.768 209.661,254.463 Q210.036,254.158 210.226,253.738 Q210.416,253.318 210.416,252.828 Q210.416,252.228 210.161,251.843 Q209.906,251.458 209.556,251.228 Q209.206,250.998 208.851,250.893 Q208.496,250.788 208.296,250.748 Q207.626,250.578 207.211,250.468 Q206.796,250.358 206.561,250.248 Q206.326,250.138 206.246,250.008 Q206.166,249.878 206.166,249.668 Q206.166,249.438 206.266,249.288 Q206.366,249.138 206.521,249.038 Q206.676,248.938 206.866,248.898 Q207.056,248.858 207.246,248.858 Q207.536,248.858 207.781,248.908 Q208.026,248.958 208.216,249.078 Q208.406,249.198 208.521,249.408 Q208.636,249.618 208.656,249.938 L210.176,249.938 Q210.176,249.318 209.941,248.883 Q209.706,248.448 209.306,248.168 Q208.906,247.888 208.391,247.763 Q207.876,247.638 207.316,247.638 Q206.836,247.638 206.356,247.768 Q205.876,247.898 205.496,248.168 Q205.116,248.438 204.881,248.843 Q204.646,249.248 204.646,249.798 Q204.646,250.288 204.831,250.633 Q205.016,250.978 205.316,251.208 Q205.616,251.438 205.996,251.583 Q206.376,251.728 206.776,251.828 Q207.166,251.938 207.546,252.028 Q207.926,252.118 208.226,252.238 Q208.526,252.358 208.711,252.538 Q208.896,252.718 208.896,253.008 Q208.896,253.278 208.756,253.453 Q208.616,253.628 208.406,253.728 Q208.196,253.828 207.956,253.863 Q207.716,253.898 207.506,253.898 Q207.196,253.898 206.906,253.823 Q206.616,253.748 206.401,253.593 Q206.186,253.438 206.056,253.188 Q205.926,252.938 205.926,252.578 z" fill="#FFFFFF"/>
    </g>
    <text transform="matrix(1, 0, 0, 1, 308.59, 94.583)">
      <tspan x="-48.56" y="3.5" font-family="HelveticaNeue-Bold" font-size="10" fill="#30B5FF">LADO DEL CLIENTE</tspan>
    </text>
    <text transform="matrix(1, 0, 0, 1, 308.59, 118.968)">
      <tspan x="-53.01" y="3.5" font-family="HelveticaNeue-Bold" font-size="10" fill="#30B5FF">LADO DEL SERVIDOR</tspan>
    </text>
    <g>
      <path d="M188.062,89.038 C193.804,99.379 190.933,94.207 196.675,104.549 L192.848,104.549 L192.848,125.638 L183.585,125.638 L183.585,104.549 L179.45,104.549 L183.756,96.793 z" fill="#F9963B"/>
      <path d="M188.062,89.038 C193.804,99.379 190.933,94.207 196.675,104.549 L192.848,104.549 L192.848,125.638 L183.585,125.638 L183.585,104.549 L179.45,104.549 L183.756,96.793 z" fill-opacity="0" stroke="#000000" stroke-width="1"/>
    </g>
    <g>
      <path d="M209.689,126.323 C203.947,115.981 206.819,121.153 201.077,110.812 L204.904,110.812 L204.904,89.722 L214.167,89.722 L214.167,110.812 L218.301,110.812 L213.995,118.567 z" fill="#F9963B"/>
      <path d="M209.689,126.323 C203.947,115.981 206.819,121.153 201.077,110.812 L204.904,110.812 L204.904,89.722 L214.167,89.722 L214.167,110.812 L218.301,110.812 L213.995,118.567 z" fill-opacity="0" stroke="#000000" stroke-width="1"/>
    </g>
    <text transform="matrix(1, 0, 0, 1, 140.146, 96.538)">
      <tspan x="-17.612" y="4" font-family="HelveticaNeue-Bold" font-size="12" fill="#C44E47">HTML</tspan>
    </text>
  </g>
  <defs/>
</svg>
